<?xml version="1.0" encoding="utf-8"?>
<!-- Generator: Adobe Illustrator 18.1.1, SVG Export Plug-In . SVG Version: 6.00 Build 0)  -->
<svg version="1.1" id="Layer_1" xmlns="http://www.w3.org/2000/svg" xmlns:xlink="http://www.w3.org/1999/xlink" x="0px" y="0px"
	 width="29px" height="29px" viewBox="-85 86 29 29" enable-background="new -85 86 29 29" xml:space="preserve">
<g id="Layer_1_1_">
	<circle fill="none" stroke="#009588" stroke-width="2.0708" stroke-miterlimit="10" cx="-70.5" cy="100.5" r="13.3"/>
	
		<line display="none" fill="none" stroke="#009588" stroke-width="2.0708" stroke-miterlimit="10" x1="-70.5" y1="100.4" x2="-70.5" y2="111"/>
	
		<circle display="none" fill="none" stroke="#009588" stroke-width="0.1479" stroke-miterlimit="10" cx="-70.5" cy="100.5" r="9.6"/>
	<path fill="#009588" d="M-60.9,99.4h-8.5c-0.2-0.2-0.4-0.3-0.6-0.4l-4.3-9.2l-1.9,0.9l4.3,9.2c-0.1,0.2-0.1,0.4-0.1,0.6
		c0,0.8,0.7,1.5,1.5,1.5c0.4,0,0.8-0.2,1.1-0.5h8.5V99.4z"/>
	<path display="none" fill="#009588" d="M-69,100.5c0-0.6-0.3-1-0.8-1.3l-2.3-9.9l-2,0.5l2.3,9.9c-0.2,0.2-0.3,0.5-0.3,0.8
		c0,0.2,0,0.4,0.1,0.6l-3.3,7.8l1.9,0.8l3.3-7.8C-69.4,101.7-69,101.1-69,100.5z"/>
	<path display="none" fill="#009588" d="M-69.5,99.3l-0.6-8.5l-2.1,0.2l0.6,8.4l-9.8-1.2l-0.3,2.1l10,1.3c0.3,0.4,0.7,0.6,1.2,0.6
		c0.8,0,1.5-0.7,1.5-1.5C-69,100-69.2,99.6-69.5,99.3z"/>
	<path display="none" fill="#009588" d="M-69,100.5c0-0.8-0.7-1.5-1.5-1.5c-0.5,0-1,0.3-1.3,0.7l-9.9,1.7l0.3,2l9.8-1.6v8.4h2.1
		v-8.5C-69.2,101.3-69,100.9-69,100.5z"/>
	<path display="none" fill="#009588" d="M-65.5,108.7l-3.6-7.7c0.1-0.2,0.1-0.4,0.1-0.6c0-0.8-0.7-1.5-1.5-1.5s-1.5,0.7-1.5,1.5
		c0,0.2,0,0.4,0.1,0.6l-4.3,9.1l1.9,0.9l3.9-8.1l3.2,6.7L-65.5,108.7z"/>
	<circle fill="#009588" cx="-70.5" cy="100.5" r="1.5"/>
</g>
</svg>
