<?xml version="1.0" encoding="utf-8"?>
<!-- Generator: Adobe Illustrator 18.1.1, SVG Export Plug-In . SVG Version: 6.00 Build 0)  -->
<svg version="1.1" id="Layer_1" xmlns="http://www.w3.org/2000/svg" xmlns:xlink="http://www.w3.org/1999/xlink" x="0px" y="0px"
	 width="29px" height="29px" viewBox="-85 86 29 29" enable-background="new -85 86 29 29" xml:space="preserve">
<g id="Layer_2">
	<g>
		<circle fill="#009588" cx="-70.5" cy="100.5" r="13.3"/>
		<path fill="#009588" d="M-70.5,114.8c-7.9,0-14.3-6.4-14.3-14.3s6.4-14.3,14.3-14.3s14.3,6.4,14.3,14.3S-62.6,114.8-70.5,114.8z
			 M-70.5,88.2c-6.8,0-12.3,5.5-12.3,12.3s5.5,12.3,12.3,12.3s12.3-5.5,12.3-12.3S-63.7,88.2-70.5,88.2z"/>
	</g>
	<path fill="#FFFFFF" d="M-69.2,100.5c0-0.8-0.7-1.5-1.5-1.5c-0.3,0-0.5,0.1-0.7,0.2l-9.6-3.1l-0.6,2l9.6,3.1
		c0.1,0.3,0.3,0.5,0.5,0.6v8.4h2.1v-8.8C-69.3,101.2-69.2,100.9-69.2,100.5z"/>
</g>
</svg>
