<svg width="131" height="110" viewBox="0 0 131 110" fill="none" xmlns="http://www.w3.org/2000/svg">
<g clip-path="url(#clip0_38_89)">
<path opacity="0.3" d="M116.581 37.772C113.783 27.0114 103.633 27.6794 94.0018 29.6775C88.8193 30.7508 81.5664 32.2386 73.9964 30.0425C57.7124 25.3195 38.9754 24.1256 29.7422 30.0425C20.5089 35.9594 14.9597 43.061 17.6177 52.9989C20.2758 62.9367 27.0437 71.8663 21.2924 77.1955C15.541 82.5248 15.6405 102.66 39.2925 104.235C62.9445 105.809 60.6005 83.2022 76.2223 84.2631C91.8442 85.324 123.909 100.6 125.264 89.5212C126.62 78.442 109.219 70.5301 115.459 52.1266C116.696 48.4676 117.868 42.6837 116.581 37.772Z" fill="white"/>
<path opacity="0.3" d="M62.2047 20.1603C62.2047 20.1603 62.8109 16.3002 64.5114 16.4487C64.9808 16.4889 65.301 16.9652 65.5124 17.4725C65.5403 17.541 65.589 17.5991 65.6516 17.6389C65.7142 17.6786 65.7877 17.698 65.8619 17.6942C65.9361 17.6905 66.0073 17.6638 66.0655 17.618C66.1238 17.5722 66.1663 17.5094 66.1871 17.4385C66.6347 15.8703 67.555 13.4763 68.985 13.4763C70.4617 13.4763 70.5083 16.2167 70.4026 17.8839C70.3992 17.938 70.4138 17.9918 70.4441 18.0369C70.4744 18.082 70.5187 18.1159 70.5703 18.1335C70.6219 18.1511 70.6778 18.1513 70.7295 18.1341C70.7813 18.117 70.8259 18.0834 70.8565 18.0385C71.2451 17.4694 71.8141 16.9219 72.5042 17.0797C73.8472 17.389 73.4866 20.1727 73.4866 20.1727L62.2047 20.1603Z" fill="white"/>
<path opacity="0.3" d="M0 56.4568C0 56.4568 0.603114 52.5968 2.30365 52.7452C2.77619 52.7854 3.0964 53.2617 3.30469 53.769C3.33257 53.8375 3.38121 53.8957 3.44383 53.9354C3.50646 53.9751 3.57998 53.9945 3.65416 53.9907C3.72835 53.987 3.79952 53.9603 3.85779 53.9145C3.91605 53.8687 3.95853 53.8059 3.97931 53.735C4.43009 52.1668 5.3503 49.7728 6.77726 49.7728C8.25395 49.7728 8.30058 52.5132 8.19488 54.1804C8.19146 54.2345 8.20602 54.2883 8.2363 54.3334C8.26659 54.3785 8.31094 54.4124 8.36252 54.43C8.4141 54.4476 8.47006 54.4478 8.52178 54.4306C8.5735 54.4135 8.61812 54.3799 8.64877 54.335C9.03738 53.7659 9.60318 53.2184 10.2965 53.3762C11.6395 53.6855 11.2788 56.4537 11.2788 56.4537L0 56.4568Z" fill="white"/>
<path opacity="0.3" d="M119.69 41.035C119.69 41.035 120.312 37.178 121.997 37.3234C122.466 37.3667 122.786 37.84 122.998 38.3503C123.026 38.4188 123.074 38.477 123.137 38.5167C123.2 38.5564 123.273 38.5758 123.347 38.572C123.422 38.5683 123.493 38.5416 123.551 38.4958C123.609 38.45 123.652 38.3872 123.672 38.3163C124.12 36.7481 125.043 34.3541 126.47 34.3541C127.947 34.3541 127.997 37.0914 127.888 38.7617C127.885 38.8158 127.899 38.8696 127.929 38.9147C127.96 38.9598 128.004 38.9937 128.056 39.0113C128.107 39.0289 128.163 39.0291 128.215 39.0119C128.267 38.9948 128.311 38.9612 128.342 38.9163C128.731 38.3441 129.299 37.7967 129.99 37.9575C131.336 38.2668 130.972 41.0319 130.972 41.0319L119.69 41.035Z" fill="white"/>
<path d="M83.7488 51.0347C82.4457 52.0898 80.9831 52.9333 79.4151 53.5339C79.4151 53.5339 77.9478 54.4463 76.07 55.5103C73.8565 56.763 72.1498 57.5919 70.5176 58.0342C69.3195 58.3628 68.1466 58.7762 67.0078 59.2714L66.6969 59.4137C65.786 59.822 65.2388 60.1251 65.2388 60.1251L64.0979 57.4465C64.0979 57.4465 66.1746 55.3928 67.3995 54.3845C68.9197 53.1472 71.6772 50.4378 74.9042 49.2748C75.1457 49.187 75.3929 49.1157 75.6441 49.0614C77.0934 48.0571 78.5939 47.128 80.1395 46.2777C80.6196 45.9983 81.138 45.7899 81.6784 45.6591C81.6784 45.6591 84.7064 48.4304 83.7488 51.0347Z" fill="#F9B587"/>
<path d="M76.6048 50.5832C76.6048 50.5832 75.5229 49.3924 74.8918 49.2718C75.1333 49.184 75.3805 49.1127 75.6317 49.0583C75.6317 49.0583 76.5084 49.9368 76.6048 50.5832Z" fill="#F39568"/>
<path d="M83.7488 51.0348C82.4457 52.0899 80.983 52.9334 79.4151 53.534C79.4151 53.534 77.9477 54.4464 76.07 55.5104C77.3757 54.5825 79.44 52.6184 81.0255 51.2699C82.1074 50.342 81.5105 49.1759 81.0721 48.0748C80.8887 47.617 80.413 46.819 80.1892 46.2994C80.1892 46.2777 80.1457 46.2747 80.127 46.2623C80.6071 45.9829 81.1255 45.7745 81.6659 45.6437C81.6659 45.6437 84.7063 48.4305 83.7488 51.0348Z" fill="#F39568"/>
<path d="M66.5756 58.3931L66.9207 61.616C66.9394 61.7844 66.9179 61.9548 66.858 62.1133C66.798 62.2719 66.7013 62.4141 66.5756 62.5284L64.6855 64.2451C64.6321 64.294 64.5696 64.332 64.5014 64.3569C64.4332 64.3817 64.3607 64.3928 64.2882 64.3897C64.2157 64.3865 64.1445 64.3691 64.0787 64.3384C64.013 64.3078 63.954 64.2645 63.9052 64.211V64.211C63.8212 64.1197 63.7706 64.0029 63.7616 63.8794C63.7526 63.7559 63.7856 63.633 63.8554 63.5306L65.2606 61.4861L65.0181 60.8675L64.1974 62.1047L63.5383 63.3264L63.2026 65.2286C63.1915 65.2943 63.1671 65.3571 63.1308 65.413C63.0945 65.469 63.0471 65.517 62.9915 65.5541C62.9359 65.5911 62.8733 65.6165 62.8075 65.6286C62.7417 65.6408 62.674 65.6394 62.6088 65.6245V65.6245C62.4926 65.5982 62.3898 65.5313 62.3191 65.4359C62.2483 65.3406 62.2143 65.2231 62.2233 65.1049L62.4129 62.8223L62.6865 61.1613L62.0088 62.8718L61.2689 65.6771C61.2444 65.7676 61.1936 65.8487 61.1227 65.9104C61.0519 65.9721 60.9643 66.0115 60.8709 66.0235C60.8018 66.0322 60.7316 66.0257 60.6653 66.0045C60.599 65.9832 60.5382 65.9478 60.4872 65.9006C60.4362 65.8533 60.3963 65.7956 60.3702 65.7313C60.3441 65.667 60.3325 65.5979 60.3362 65.5287L60.4854 63.0542L60.9891 61.285L59.5124 63.7595L58.7103 65.4977C58.6674 65.5907 58.5921 65.665 58.4984 65.7071C58.4047 65.7492 58.2989 65.7561 58.2005 65.7266V65.7266C58.1467 65.7107 58.0966 65.6843 58.0531 65.6491C58.0096 65.6139 57.9736 65.5704 57.947 65.5213C57.9204 65.4721 57.9039 65.4183 57.8983 65.3627C57.8927 65.3072 57.8982 65.2511 57.9144 65.1977L58.5362 63.1532L59.5839 61.152L58.5642 62.7449L58.2906 63.3635C58.2627 63.426 58.2111 63.475 58.1471 63.4999C58.0831 63.5248 58.0118 63.5236 57.9486 63.4965V63.4965C57.8931 63.4727 57.8477 63.4303 57.8205 63.3766C57.7932 63.3229 57.7857 63.2613 57.7994 63.2027L57.9611 62.4913L58.6699 61.019L64.1135 57.425C64.1135 57.425 65.0243 57.128 66.5756 58.3931Z" fill="#F9B587"/>
<path d="M66.9456 59.2961L66.6845 59.4106C66.6845 59.4106 66.6005 58.9837 65.9352 58.4363C66.356 58.6077 66.7102 58.9092 66.9456 59.2961V59.2961Z" fill="#F39568"/>
<path d="M117.035 52.8905C116.893 53.1163 116.671 53.2815 116.413 53.3545C116.628 56.6393 116.55 59.4601 116.056 60.7313C114.526 64.6471 101.51 66.5616 98.379 63.7192C95.2485 60.8767 93.5448 42.099 97.7573 39.139C100.907 36.9275 107.513 36.5656 110.662 36.5254C111.306 36.5158 111.937 36.6997 112.474 37.0528C113.011 37.406 113.428 37.9121 113.671 38.5049C114.461 40.4504 115.167 43.5342 115.677 46.822C115.875 46.8251 116.071 46.8596 116.258 46.9241C116.92 47.1499 117.343 52.2874 117.035 52.8905Z" fill="#2C2A40"/>
<path d="M93.1437 91.6368C93.2706 92.1325 93.4969 92.5975 93.809 93.0039C93.809 93.0039 92.4287 93.5576 91.151 94.0772C90.1748 94.4731 88.58 94.6958 87.5478 95.101C87.3173 95.1805 87.0987 95.2908 86.8981 95.4288C86.8546 95.4598 86.8142 95.4938 86.7769 95.5247C86.2079 96.0567 83.211 97.3032 82.2659 97.5259C82.1951 97.5468 82.1221 97.5593 82.0483 97.563C81.8623 97.5646 81.679 97.5188 81.5157 97.43C81.3525 97.3412 81.2148 97.2124 81.1157 97.0558V97.0558C80.9012 96.7094 80.8048 96.1526 81.038 95.2835C81.2711 94.4143 81.9706 93.4277 82.6887 92.5678C83.5539 91.526 84.5981 90.6453 85.7727 89.9666C86.8732 89.3294 88.2598 88.4974 88.5302 88.2005C89.3945 87.2571 90.1655 86.1653 91.3935 85.6828C91.758 85.5634 92.1424 85.5162 92.5251 85.5436C93.4995 85.6125 94.4624 85.7941 95.3945 86.0849C95.3945 86.0849 92.4536 88.8407 93.1437 91.6368Z" fill="#B0B1CA"/>
<path d="M92.5375 85.5435C91.9437 85.9704 90.9831 86.7189 90.61 87.3994C90.0255 88.4293 87.725 89.4995 86.7271 90.146C85.7291 90.7924 81.8866 93.7833 81.5105 95.4257C81.184 96.8485 81.8431 97.3929 82.2659 97.5259C82.1951 97.5462 82.122 97.5576 82.0483 97.5599C81.5105 97.5599 80.5654 97.1238 81.0503 95.2834C81.2742 94.4391 81.983 93.4276 82.7011 92.5678C83.5663 91.526 84.6105 90.6452 85.7851 89.9666C86.8856 89.3294 88.2722 88.4974 88.5426 88.2004C89.4069 87.2571 90.1779 86.1652 91.4059 85.6827C91.77 85.5619 92.1547 85.5146 92.5375 85.5435V85.5435Z" fill="#2C2A40"/>
<path opacity="0.2" d="M93.809 93.0039C93.809 93.0039 92.4287 93.5575 91.151 94.0771C90.1748 94.4731 88.58 94.6957 87.5478 95.1009C87.3173 95.1804 87.0987 95.2907 86.8981 95.4288C86.8546 95.4597 86.8141 95.4937 86.7768 95.5247C86.2079 96.0567 83.211 97.3032 82.2659 97.5259C82.1951 97.5468 82.1221 97.5592 82.0483 97.563C81.8623 97.5645 81.6789 97.5187 81.5157 97.43C81.3525 97.3412 81.2148 97.2124 81.1157 97.0557V97.0557C81.1157 97.0557 83.0711 96.6258 84.0877 95.9763C84.7437 95.5587 85.6421 94.8813 86.5002 94.4297C86.2365 93.9322 85.9319 93.4574 85.5893 93.0101C86.072 93.3683 86.515 93.7768 86.9105 94.2287C87.2048 94.0896 87.5197 93.9987 87.8432 93.9596C88.8473 93.8668 92.009 92.8245 93.1282 91.6429C93.2605 92.1377 93.4921 92.6006 93.809 93.0039Z" fill="#2C2A40"/>
<path d="M86.4256 82.7289C86.4007 84.2569 86.7364 85.5127 86.6649 86.0385C86.5655 87.0066 84.9271 88.9397 84.9271 88.9397C84.8059 90.0439 83.9198 91.6059 82.7509 92.4348H82.7354L82.695 92.4812C82.3802 92.7251 82.0111 92.89 81.6189 92.9622C81.2266 93.0343 80.8226 93.0115 80.4411 92.8957C80.354 92.8648 80.267 92.8307 80.1799 92.7905C78.6721 92.0668 78.2058 86.8983 80.1799 84.8291C82.0825 82.831 82.8877 78.7235 84.781 78.2657C86.6743 77.808 87.6442 78.6214 87.6442 78.6214C87.5945 78.6956 87.5447 78.7699 87.5012 78.8441C86.7971 80.0189 86.4255 81.3612 86.4256 82.7289Z" fill="#B0B1CA"/>
<path d="M87.6473 78.612C87.5976 78.6863 87.551 78.7605 87.5043 78.8347C87.324 78.7698 85.5302 78.1419 84.4266 78.8347C83.2639 79.5709 82.611 82.3701 81.9986 83.134C81.3862 83.898 79.4649 86.6941 79.4151 87.789C79.3654 88.8839 79.1043 91.578 80.155 92.3667C81.1468 93.109 82.3312 92.676 82.6981 92.4657C81.9364 92.9853 81.0566 93.1925 80.183 92.775C78.6753 92.0543 78.2089 86.8982 80.183 84.8166C82.0856 82.8185 82.8908 78.711 84.7841 78.2533C86.6774 77.7955 87.6473 78.612 87.6473 78.612Z" fill="#2C2A40"/>
<path opacity="0.2" d="M86.6742 86.0384C86.581 86.9323 85.1851 88.6427 84.9644 88.9056L84.9488 88.9273C84.8276 90.0315 83.9416 91.5935 82.7727 92.4224H82.7571L82.6949 92.4812C82.3802 92.725 82.0111 92.89 81.6188 92.9621C81.2266 93.0343 80.8226 93.0114 80.441 92.8956C80.5911 92.8238 80.75 92.7718 80.9136 92.741C82.2535 92.4688 83.4006 90.6192 83.6618 89.6077C83.8027 89.2139 84.0132 88.8483 84.2836 88.5283C83.8198 88.2282 83.2936 88.0368 82.7447 87.9684C82.7447 87.9684 83.3665 87.7457 84.4918 88.253C85.182 87.3839 86.0463 86.4683 86.1551 86.0477C86.3105 85.3889 86.4411 82.7382 86.4411 82.7382C86.4255 84.2568 86.7364 85.5126 86.6742 86.0384Z" fill="#2C2A40"/>
<path d="M125.687 29.7146L121.866 31.858L117.996 34.0046C117.996 34.0046 116.441 30.494 117.828 28.3196C117.828 28.3196 118.154 28.131 118.63 27.8804C118.978 27.6979 119.407 27.4845 119.849 27.2897C120.1 27.1783 120.355 27.0731 120.601 26.9804C120.893 26.0629 121.238 25.1633 121.636 24.2863C121.897 23.7983 122.02 23.2487 121.991 22.6965C121.986 22.5462 121.943 22.3994 121.866 22.2697C122.975 21.7132 124.029 21.0535 125.012 20.2994C125.012 20.2994 127.462 25.9009 125.687 29.7146Z" fill="#F9B587"/>
<path d="M122.541 28.5083C122.016 28.6055 121.474 28.5388 120.99 28.3172C120.505 28.0957 120.101 27.7303 119.833 27.2711C120.085 27.1597 120.34 27.0546 120.585 26.9618C120.585 26.968 121.341 28.3042 122.541 28.5083Z" fill="#F39568"/>
<path d="M121.866 31.8581L117.996 34.0047C117.996 34.0047 116.441 30.4941 117.828 28.3197C117.828 28.3197 118.154 28.131 118.63 27.8805C118.63 27.8805 118.67 30.8653 119.081 31.5921C119.491 32.319 120.856 32.0715 121.866 31.8581Z" fill="#F39568"/>
<path d="M124.997 20.3057C124.134 21.0802 123.205 21.7787 122.221 22.3935C122.118 22.443 121.975 22.3935 121.835 22.279C121.316 22.3153 120.796 22.2545 120.299 22.0996C120.026 21.9759 120.029 21.5924 120.1 21.1717C119.448 21.014 118.173 20.0211 118.188 19.0747C118.21 18.0447 119.32 17.9674 119.32 17.9674C119.31 17.821 119.334 17.6742 119.391 17.5388C119.448 17.4033 119.535 17.2828 119.647 17.1868C119.758 17.0908 119.891 17.0219 120.034 16.9856C120.177 16.9493 120.326 16.9466 120.47 16.9776C120.529 16.4611 121.468 16.2322 121.468 16.2322C121.565 15.793 122.177 15.7187 122.541 15.8889C122.905 16.059 125.071 18.5612 125.168 19.019C125.196 19.4549 125.138 19.8922 124.997 20.3057V20.3057Z" fill="#F9B587"/>
<path d="M121.779 20.6149C121.938 21.2088 121.437 21.283 121.437 21.283C121.537 21.2057 121.531 20.9552 121.503 20.7356C121.495 20.6255 121.475 20.5166 121.443 20.4108C121.414 20.2963 121.361 20.1894 121.286 20.0976C121.211 20.0058 121.118 19.9311 121.011 19.8788C120.564 19.6808 120.358 19.8138 120.358 19.8138L119.469 18.6137C119.859 18.8838 120.219 19.1949 120.542 19.5417C120.811 19.5249 121.077 19.6024 121.295 19.7606C121.512 19.9188 121.667 20.1477 121.733 20.4077C121.823 20.4074 121.911 20.3767 121.982 20.3206C122.053 20.2645 122.103 20.1862 122.124 20.0984C122.154 19.9538 122.155 19.8047 122.127 19.6597C122.099 19.5148 122.042 19.3768 121.96 19.254L120.716 17.6178C120.716 17.6178 122.401 19.1829 122.441 19.7829C122.465 19.8823 122.466 19.9859 122.444 20.0857C122.422 20.1855 122.378 20.2791 122.314 20.3592C122.25 20.4394 122.169 20.5041 122.076 20.5484C121.984 20.5927 121.882 20.6154 121.779 20.6149V20.6149Z" fill="#F39568"/>
<path d="M121.956 17.126C121.956 17.126 123.06 18.4374 123.2 18.7931C123.234 18.8739 123.252 18.9608 123.251 19.0485C123.251 19.1363 123.233 19.223 123.198 19.3034C123.162 19.3839 123.111 19.4564 123.047 19.5164C122.983 19.5765 122.907 19.623 122.824 19.653C122.749 19.6786 122.668 19.6855 122.59 19.6731C122.511 19.6607 122.437 19.6293 122.373 19.5818V19.9963C122.373 19.9963 123.489 20.1695 123.477 19.1148C123.477 18.589 121.956 17.126 121.956 17.126Z" fill="#F39568"/>
<path d="M123.421 18.8674C123.5 18.9399 123.596 18.9919 123.7 19.0189C123.804 19.0458 123.913 19.0469 124.018 19.022C124.344 18.9169 124.412 18.7127 124.328 18.4962C124.386 18.5608 124.421 18.643 124.426 18.7295C124.431 18.816 124.407 18.9017 124.356 18.9725C124.136 19.3406 123.589 19.2818 123.424 19.2293L123.421 18.8674Z" fill="#F39568"/>
<path d="M123.206 22.0996C123.078 22.3063 122.892 22.4715 122.671 22.5752C122.451 22.679 122.205 22.7168 121.963 22.6842C121.964 22.5404 121.931 22.3983 121.866 22.2697C122.32 22.2946 122.774 22.237 123.206 22.0996V22.0996Z" fill="#F39568"/>
<path d="M110.447 71.9126C110.447 71.9126 109.322 69.4537 109.515 68.0587C109.708 66.6638 111.62 68.8598 111.868 69.4506C112.117 70.0414 111.775 71.6652 110.447 71.9126Z" fill="#6C8C31"/>
<path d="M96.1437 86.2611C95.1138 86.7202 94.009 86.9905 92.8826 87.0591C93.5577 86.588 94.3128 86.2422 95.1116 86.0385C95.4608 86.0865 95.8059 86.161 96.1437 86.2611Z" fill="#2C2A40"/>
<path d="M118.136 91.7883C117.93 87.3622 110.609 76.0943 109.468 67.5483L104.88 65.9028C104.258 65.7265 104.538 65.8286 103.819 65.6152C103.819 65.6152 92.979 60.0478 88.123 67.372C87.8022 69.1979 88.1077 71.0782 88.9903 72.7106C89.6121 73.855 90.066 77.3903 89.6121 78.1048C88.9476 78.2018 88.2959 78.3719 87.6691 78.612C86.8546 78.8935 85.5986 79.4038 84.7468 79.7564C84.2158 79.9724 83.7427 80.3085 83.365 80.738C82.9873 81.1675 82.7153 81.6786 82.5706 82.2309C82.4026 82.885 82.434 83.5741 82.6608 84.2104C83.4784 86.5518 85.524 86.8054 86.8546 86.6013C88.5661 86.6094 90.2746 86.7459 91.9655 87.0096C92.2736 87.0605 92.5863 87.0782 92.8981 87.0622C92.2208 87.5142 91.7392 88.2032 91.5489 88.9922C91.0888 91.2439 93.265 92.8554 93.265 92.8554C93.265 92.8554 93.4919 93.3131 95.2298 93.2111C96.9676 93.109 96.9645 92.6481 98.4008 93.2265C99.837 93.8049 109.903 97.9434 113.227 98.0949C116.55 98.2465 118.325 96.2144 118.136 91.7883ZM99.2899 87.0591C99.2899 87.0591 97.6733 86.7003 96.1593 86.2611C97.8474 85.5373 99.3956 84.3589 99.8899 82.8866C100.602 80.7215 100.338 79.5368 100.555 78.5904C101.926 82.1846 104.103 85.4198 106.922 88.0488C106.922 88.0488 101.917 86.9694 99.2743 87.0591H99.2899Z" fill="#2C2A40"/>
<path d="M88.0359 79.6637L87.5634 79.7627L87.6131 79.9915L88.0856 79.8926L88.5551 79.7936L88.5084 79.5647L88.0359 79.6637Z" fill="#5B5B6C"/>
<path d="M83.2421 81.2968L83.3572 81.5009C83.6338 81.3462 83.9167 81.1916 84.2028 81.0462L84.0939 80.839C83.8079 80.9875 83.5219 81.1421 83.2421 81.2968Z" fill="#5B5B6C"/>
<path d="M86.0712 80.1091L86.1302 80.3349C86.4038 80.2607 86.7085 80.1865 87.0629 80.1091L87.0132 79.8802C86.6556 79.9607 86.3479 80.0349 86.0712 80.1091Z" fill="#5B5B6C"/>
<path d="M91.0888 76.3294L91.3251 76.314C91.3064 76.0047 91.2753 75.6706 91.2318 75.3521L90.9987 75.383C91.036 75.6954 91.0639 76.014 91.0888 76.3294Z" fill="#5B5B6C"/>
<path d="M89.1551 66.6731L88.9188 66.6576C88.9002 66.9824 88.8846 67.304 88.8815 67.6195H89.1147C89.1209 67.3133 89.1333 66.9916 89.1551 66.6731Z" fill="#5B5B6C"/>
<path d="M90.9085 74.8509L91.1385 74.8076C91.0795 74.4798 91.008 74.1612 90.9271 73.8643L90.7002 73.923C90.7779 74.2014 90.8494 74.5138 90.9085 74.8509Z" fill="#5B5B6C"/>
<path d="M84.6069 80.5917L84.7001 80.8051C84.9917 80.686 85.2896 80.5827 85.5924 80.4958L85.524 80.2731C85.2127 80.3626 84.9065 80.4689 84.6069 80.5917V80.5917Z" fill="#5B5B6C"/>
<path d="M90.8152 78.7821C90.7246 78.8821 90.6132 78.9613 90.4888 79.0141L90.5914 79.2244C90.7513 79.1559 90.8921 79.0498 91.0017 78.9151C91.1021 78.7629 91.1718 78.5928 91.2069 78.4141L90.9769 78.3584C90.9497 78.5083 90.8948 78.652 90.8152 78.7821V78.7821Z" fill="#5B5B6C"/>
<path d="M90.7593 73.3044C90.6552 72.9956 90.5263 72.6957 90.3738 72.4075L90.1686 72.5157C90.3133 72.7949 90.437 73.0844 90.5385 73.3818L90.7593 73.3044Z" fill="#5B5B6C"/>
<path d="M89.1178 68.1793H88.8815C88.8815 68.5165 88.9064 68.8412 88.9344 69.1474L89.1675 69.1258C89.1396 68.8289 89.124 68.5103 89.1178 68.1793Z" fill="#5B5B6C"/>
<path d="M91.3375 76.88H91.0888C91.0888 76.914 91.0888 76.9481 91.0888 76.9821C91.0888 77.2914 91.0888 77.5697 91.0515 77.8234L91.2847 77.8481C91.3133 77.5603 91.3268 77.2713 91.3251 76.9821L91.3375 76.88Z" fill="#5B5B6C"/>
<path d="M89.4255 70.6011C89.3422 70.296 89.2779 69.9862 89.2328 69.6732L88.9996 69.7072C89.0469 70.0284 89.1133 70.3466 89.1986 70.6599L89.4255 70.6011Z" fill="#5B5B6C"/>
<path d="M89.6028 71.1177L89.3851 71.2043C89.4947 71.4828 89.6422 71.7451 89.8235 71.9837L89.8794 72.058L90.0691 71.9188C90.0504 71.8909 90.0287 71.8662 90.01 71.8414C89.8416 71.6199 89.7045 71.3764 89.6028 71.1177V71.1177Z" fill="#5B5B6C"/>
<path d="M89.0556 79.4472L89.1085 79.673C89.5002 79.5864 89.8017 79.5091 90.0411 79.4317L89.9696 79.2059C89.7364 79.2833 89.4442 79.3606 89.0556 79.4472Z" fill="#5B5B6C"/>
<path d="M101.186 78.111L100.928 77.7213L101.127 77.5945L101.382 77.9842L101.186 78.111Z" fill="#5B5B6C"/>
<path d="M96.7282 87.3343C96.9769 87.3931 97.2722 87.4674 97.6329 87.5632L97.6919 87.3374C97.3313 87.2416 97.0329 87.1673 96.7842 87.1055L96.7282 87.3343Z" fill="#5B5B6C"/>
<path d="M95.3075 86.8859L95.2795 87.1178C95.5158 87.1457 95.7272 87.1673 95.9013 87.1766C95.9985 87.1848 96.0951 87.1993 96.1904 87.2199L96.2339 86.9879C96.1313 86.9672 96.0275 86.9528 95.9231 86.9446C95.7521 86.9354 95.5407 86.9137 95.3075 86.8859Z" fill="#5B5B6C"/>
<path d="M98.1583 87.7055C98.4443 87.7829 98.7458 87.8633 99.0598 87.953L99.122 87.7272L98.2204 87.4797L98.1583 87.7055Z" fill="#5B5B6C"/>
<path d="M99.6472 87.8678L99.5834 88.0941L100.484 88.3456L100.548 88.1192L99.6472 87.8678Z" fill="#5B5B6C"/>
<path d="M101.009 88.4943L101.911 88.7448L101.973 88.519L101.074 88.2716L101.009 88.4943Z" fill="#5B5B6C"/>
<path d="M104.709 82.8495L104.171 82.0886L103.978 82.2216L104.516 82.9825L104.709 82.8495Z" fill="#5B5B6C"/>
<path d="M109.241 88.683C109.143 88.3688 108.974 88.0811 108.747 87.8417L108.57 87.9901C108.77 88.2052 108.922 88.4604 109.014 88.7386L109.241 88.683Z" fill="#5B5B6C"/>
<path d="M105.57 84.0433C105.389 83.7959 105.206 83.5454 105.026 83.2917L104.833 83.4278L105.38 84.1794L105.57 84.0433Z" fill="#5B5B6C"/>
<path d="M93.8277 86.79L93.8121 86.8705C94.1417 86.9344 94.4526 86.9901 94.7448 87.0375L94.7821 86.8086L94.3531 86.7344C94.1728 86.756 94.0018 86.7746 93.8277 86.79Z" fill="#5B5B6C"/>
<path d="M101.485 78.5626L102.004 79.339L102.2 79.209L101.681 78.4358L101.485 78.5626Z" fill="#5B5B6C"/>
<path d="M107.127 89.6974C107.023 89.6972 106.92 89.691 106.816 89.6789L106.792 89.9109C106.895 89.9224 106.999 89.9286 107.102 89.9294H107.152C107.37 89.9294 107.575 89.9078 107.755 89.8892L107.73 89.6572C107.535 89.6634 107.339 89.6758 107.127 89.6974Z" fill="#5B5B6C"/>
<path d="M108.253 87.3281C108.1 87.1828 107.923 86.9972 107.727 86.7776L107.55 86.9322C107.752 87.158 107.936 87.3498 108.091 87.4983L108.206 87.6065L108.371 87.4395L108.253 87.3281Z" fill="#5B5B6C"/>
<path d="M107.373 86.3694C107.193 86.1528 106.994 85.9116 106.788 85.6487L106.602 85.791C106.813 86.057 107.009 86.3013 107.193 86.5178L107.373 86.3694Z" fill="#5B5B6C"/>
<path d="M105.7 84.6187C105.893 84.8785 106.083 85.129 106.263 85.361L106.45 85.2218C106.269 84.9898 106.083 84.7393 105.887 84.4795L105.7 84.6187Z" fill="#5B5B6C"/>
<path d="M108.234 89.5552L108.29 89.7841C108.631 89.7358 108.94 89.5613 109.157 89.2954L108.961 89.1686C108.775 89.3816 108.516 89.5191 108.234 89.5552Z" fill="#5B5B6C"/>
<path d="M102.439 88.8902L103.341 89.1315L103.403 88.9057L102.498 88.6644L102.439 88.8902Z" fill="#5B5B6C"/>
<path d="M105.312 89.6233C105.663 89.7037 105.971 89.7686 106.244 89.815L106.285 89.5861C106.03 89.5397 105.725 89.4748 105.377 89.3975L105.312 89.6233Z" fill="#5B5B6C"/>
<path d="M103.139 81.0092L103.667 81.7763L103.86 81.6432L103.331 80.8793L103.139 81.0092Z" fill="#5B5B6C"/>
<path d="M103.024 80.4184L102.501 79.6482L102.309 79.7781L102.831 80.5483L103.024 80.4184Z" fill="#5B5B6C"/>
<path d="M103.869 89.2706L104.777 89.4995L104.833 89.2706C104.559 89.2056 104.255 89.1283 103.928 89.0448L103.869 89.2706Z" fill="#5B5B6C"/>
<path d="M96.1437 86.2611C95.1138 86.7202 94.009 86.9905 92.8826 87.0591C93.5577 86.588 94.3128 86.2422 95.1116 86.0385C95.4608 86.0865 95.8059 86.161 96.1437 86.2611Z" fill="#2C2A40"/>
<path d="M118.366 34.5613C118.35 36.0336 118.272 37.1038 118.272 37.1038C117.974 37.2145 117.682 37.3425 117.399 37.4873C115.378 38.5049 112.863 40.6329 112.254 42.8011C112.008 43.6641 111.896 45.4457 111.853 47.4592C111.815 49.0861 111.828 50.8615 111.853 52.4359C111.853 52.5194 111.853 52.6029 111.853 52.6864C111.884 54.6752 111.934 56.2836 111.934 56.7383C111.934 58.0095 111.679 61.7768 111.623 63.4037C111.567 65.0306 112.033 66.7596 112.244 69.5062C112.456 72.2528 110.451 71.9126 110.451 71.9126C112.394 71.0991 111.383 68.7825 110.14 68.2876C109.956 68.2133 109.742 68.1329 109.502 68.0494C106.537 67.004 99.6537 65.241 96.1345 64.7275C90.9116 63.9666 88.0981 67.3751 88.0981 67.3751C88.0981 67.3751 89.1209 61.7273 89.9883 60.6076C90.8556 59.4879 91.3717 55.8258 91.7292 54.301C91.7791 54.0512 91.8072 53.7977 91.8132 53.5432C91.8629 52.1761 91.5614 50.0295 91.3873 48.9191C91.3189 48.4737 91.266 48.1953 91.266 48.1953C90.7406 49.0614 87.3085 50.8399 85.552 51.7121C84.9302 52.0214 84.5198 52.2163 84.5198 52.2163L83.0618 50.0171L80.1737 45.6529C80.1737 45.6529 80.3633 45.4797 80.9633 45.0095C81.3893 44.6755 82.0203 44.193 82.9343 43.5156C85.1323 41.8887 87.7406 38.938 88.7106 38.4802C89.6805 38.0224 89.836 38.075 91.1137 36.8533C92.0121 35.9965 95.264 34.9603 97.1262 34.416C97.922 34.184 98.463 34.0448 98.463 34.0448C99.8942 34.4967 101.445 34.386 102.797 33.7355C102.797 33.7355 103.478 33.2901 104.398 32.7334C105.893 31.8333 108.023 30.6394 108.906 30.5682C110.028 30.4816 114.85 29.1331 116.889 28.5516L117.803 28.2887C118.3 30.1074 118.387 32.6653 118.366 34.5613Z" fill="#A5C723"/>
<path d="M100.49 36.3677C99.7983 36.4137 99.1088 36.2519 98.5107 35.9033C97.9126 35.5548 97.4335 35.0356 97.1355 34.4129C97.9314 34.181 98.4723 34.0418 98.4723 34.0418C99.9035 34.4937 101.454 34.383 102.806 33.7325C102.806 33.7325 103.487 33.2871 104.407 32.7303C104.674 34.9852 102.974 36.2409 100.49 36.3677Z" fill="#2C2A40"/>
<path d="M85.5613 51.709C84.9396 52.0183 84.5292 52.2132 84.5292 52.2132L80.1768 45.6498C80.1768 45.6498 80.3665 45.4766 80.9665 45.0065L85.5613 51.709Z" fill="#2C2A40"/>
<path d="M118.272 37.1162C117.974 37.2268 117.682 37.3549 117.399 37.4997C117.781 33.8066 117.187 30.0765 116.898 28.5794L117.812 28.3165C118.683 31.5085 118.272 37.1162 118.272 37.1162Z" fill="#2C2A40"/>
<path d="M111.85 52.4359C108.265 50.8739 99.5324 48.0747 91.8225 53.5401C91.8722 52.173 91.5706 50.0264 91.3965 48.916C92.5655 48.1799 98.1769 44.8425 103.549 45.0064C106.481 45.1138 109.337 45.9576 111.853 47.4592C111.815 49.0861 111.828 50.8646 111.85 52.4359Z" fill="#B8E019"/>
<path d="M94.5614 21.7965C94.5614 21.7965 93.1406 21.4872 92.9665 23.1203C92.8173 24.5246 94.608 25.0504 94.608 25.0504C94.608 25.0504 95.1831 22.6657 94.5614 21.7965Z" fill="#2C2A40"/>
<path d="M95.2609 24.1781C95.2609 24.1781 93.8402 23.8688 93.6661 25.4988C93.5168 26.903 95.3075 27.4288 95.3075 27.4288C95.3075 27.4288 95.8827 25.0534 95.2609 24.1781Z" fill="#2C2A40"/>
<path d="M94.3251 22.1275C93.6882 21.8747 93.1761 21.3839 92.8983 20.7601C92.6206 20.1364 92.5993 19.4293 92.839 18.7901C93.61 16.3157 96.551 17.2993 96.551 17.2993C96.5988 16.7946 96.8371 16.3267 97.2178 15.9898C97.5985 15.6529 98.0934 15.472 98.6028 15.4837C99.1383 15.4426 99.6741 15.5584 100.144 15.8167C100.614 16.0751 100.998 16.4646 101.248 16.9374C101.248 16.9374 102.56 15.6383 104.158 16.028C105.756 16.4178 106.297 18.3478 105.8 19.2602C105.8 19.2602 106.816 19.0808 107.587 20.2562C108.358 21.4315 108.557 23.176 107.587 23.8255C107.922 24.2256 108.146 24.7059 108.236 25.2186C108.327 25.7314 108.281 26.2588 108.103 26.7484C107.937 27.2222 107.628 27.6338 107.219 27.9275C106.81 28.2212 106.32 28.3829 105.815 28.3908C105.815 28.3908 106.126 30.5869 103.994 31.122C101.861 31.657 102.054 29.761 102.054 29.761C102.054 29.761 98.3106 21.1501 94.3251 22.1275Z" fill="#2C2A40"/>
<path d="M103.257 31.9942L103.568 33.5035C103.606 33.6917 103.589 33.8869 103.52 34.0661C103.451 34.2452 103.331 34.401 103.176 34.515C100.428 36.5007 98.3355 35.1336 97.8909 34.4593C98.2236 34.15 104.109 28.5826 104.217 25.4895C104.221 25.4741 104.898 29.3589 103.257 31.9942Z" fill="#F9B587"/>
<path d="M94.4805 26.3185C94.2674 27.1529 94.3195 28.0325 94.6297 28.8362L95.5935 31.3106C95.7674 31.7602 96.0788 32.1441 96.4838 32.4082C96.8887 32.6724 97.3667 32.8034 97.8505 32.7829C99.2575 32.7511 100.63 32.343 101.824 31.6014C104.311 29.9559 104.311 26.1762 104.311 26.1762C104.311 26.1762 104.105 22.344 100.906 20.8903C97.7075 19.4365 94.4556 21.1377 94.4556 21.1377L94.0888 23.8162C94.0671 23.9648 94.0547 24.1146 94.0515 24.2647C94.0356 24.7708 94.1147 25.2753 94.2847 25.7525L94.4805 26.3185Z" fill="#F9B587"/>
<path d="M97.0858 23.4884C97.0858 23.4884 98.8827 21.7408 100.123 23.3152L99.8992 23.7173C99.8992 23.7173 98.6557 22.6347 97.2008 23.9864L97.0858 23.4884Z" fill="#2C2A40"/>
<path d="M94.4805 26.3184C94.3666 26.7636 94.3277 27.2246 94.3655 27.6824C94.751 27.4102 95.5282 27.1814 97.0888 27.3917C97.0888 27.3917 96.2526 26.7143 95.4163 26.7019C95.3641 26.7006 95.313 26.6872 95.267 26.6627C95.221 26.6383 95.1813 26.6036 95.1512 26.5613C95.121 26.5189 95.1012 26.4702 95.0932 26.4189C95.0853 26.3676 95.0894 26.3152 95.1054 26.2658L95.5748 24.843C95.4495 24.6567 95.2642 24.5182 95.0494 24.4502C94.7231 24.3651 94.3904 24.3062 94.0546 24.2739C94.0387 24.7799 94.1178 25.2845 94.2878 25.7617L94.4805 26.3184Z" fill="#F39568"/>
<path d="M94.1292 23.8471C94.5014 23.8712 94.8691 23.9418 95.2235 24.0574L95.2795 24.5214C94.9115 24.3914 94.5227 24.3296 94.1323 24.3389C94.0956 24.3424 94.0585 24.3381 94.0235 24.3265C93.9886 24.3148 93.9564 24.296 93.9292 24.2712C93.9019 24.2465 93.8802 24.2163 93.8654 24.1827C93.8506 24.149 93.843 24.1127 93.8432 24.076V24.076C93.8463 24.042 93.8562 24.0091 93.8724 23.979C93.8885 23.949 93.9106 23.9225 93.9373 23.9011C93.964 23.8797 93.9948 23.8639 94.0278 23.8547C94.0607 23.8454 94.0952 23.8428 94.1292 23.8471V23.8471Z" fill="#2C2A40"/>
<path d="M95.1956 28.5362L99.4827 28.1465C99.4827 28.1465 98.9946 30.4415 96.722 30.3827C94.922 30.3116 95.1956 28.5362 95.1956 28.5362Z" fill="white"/>
<path d="M98.1054 32.7086C98.1054 32.7086 100.754 32.3807 102.178 28.7124C102.178 28.7124 102.837 30.064 102.063 32.0096C101.289 33.9551 97.894 34.4592 97.894 34.4592L98.1054 32.7086Z" fill="#F39568"/>
<path d="M103.213 25.5576C103.213 25.5576 104.018 24.0328 105.194 24.7194C106.369 25.4061 105.713 28.8888 104.009 28.2362C102.305 27.5836 103.213 25.5576 103.213 25.5576Z" fill="#F9B587"/>
<path d="M97.6174 24.8338C97.6174 24.8338 97.8692 24.076 98.55 24.0729C98.8138 24.0552 99.0758 24.1281 99.292 24.2796C99.5082 24.4311 99.6655 24.6518 99.7376 24.905C99.7376 24.905 98.7676 23.5811 97.6174 24.8338Z" fill="#2C2A40"/>
<path d="M95.3759 25.3627C95.3759 25.3627 94.6888 24.5492 94.2816 25.5359C94.3406 25.4513 94.4162 25.3795 94.5039 25.3247C94.5915 25.27 94.6894 25.2334 94.7916 25.2172C94.8938 25.201 94.9983 25.2056 95.0987 25.2306C95.1991 25.2556 95.2934 25.3005 95.3759 25.3627V25.3627Z" fill="#2C2A40"/>
<path d="M94.3251 22.1274C95.0596 22.284 95.8266 22.1474 96.4609 21.747C97.4402 21.0758 97.2039 20.4789 97.2039 20.4789C97.2039 20.4789 97.6018 21.4686 98.9262 21.3666C100.251 21.2645 100.434 20.8995 100.434 20.8995C100.434 20.8995 100.378 22.3718 101.46 22.5976C101.783 22.66 102.117 22.6336 102.426 22.5213C102.734 22.4091 103.007 22.2151 103.213 21.9604C103.213 21.9604 98.4008 17.7446 96.7469 18.8674C95.093 19.9902 93.6536 20.5778 94.3251 22.1274Z" fill="#2C2A40"/>
<path d="M102.629 22.1522C102.629 22.1522 101.973 23.4172 103.083 24.1472C103.052 24.823 102.919 25.4904 102.688 26.1267H103.533C103.533 26.1267 104.155 25.0472 104.093 24.1224C104.031 23.1976 104.028 21.781 102.629 22.1522Z" fill="#2C2A40"/>
<path d="M124.997 20.3057C124.896 20.5686 124.734 20.8039 124.524 20.9923C124.524 20.9923 124.997 20.9707 125.146 20.7016L124.997 20.3057Z" fill="#F39568"/>
<path opacity="0.2" d="M109.502 68.0463C106.537 67.0009 99.6537 65.2379 96.1345 64.7244C90.9116 63.9635 88.0981 67.3721 88.0981 67.3721C88.0981 67.3721 89.1209 61.7242 89.9883 60.6045C90.8557 59.4849 91.3717 55.8227 91.7292 54.2979C91.7791 54.0482 91.8072 53.7946 91.8132 53.5401C91.8629 52.173 91.5614 50.0264 91.3873 48.916C91.3189 48.4706 91.266 48.1923 91.266 48.1923C90.7406 49.0583 87.3085 50.8368 85.552 51.709C84.9302 52.0183 84.5199 52.2132 84.5199 52.2132L83.0618 50.014L82.8629 49.0583C82.8629 49.0583 86.6805 46.9984 91.9313 44.1744C91.9313 44.1744 94.3096 47.1499 94.2723 50.5832C94.207 56.6919 93.3396 60.8613 97.1262 62.284C100.823 63.6635 108.996 67.7896 109.502 68.0463Z" fill="#2C2A40"/>
<path opacity="0.2" d="M118.366 34.5614C118.35 36.0337 118.272 37.1039 118.272 37.1039C117.974 37.2145 117.682 37.3426 117.399 37.4874C115.378 38.505 112.863 40.633 112.254 42.8012C112.008 43.6641 111.896 45.4457 111.853 47.4593C111.815 49.0862 111.828 50.8616 111.853 52.4359C111.853 52.5194 111.853 52.603 111.853 52.6865C111.853 52.6865 110.5 43.5126 111.268 40.8186C112.036 38.1246 118.229 34.6418 118.366 34.5614Z" fill="#2C2A40"/>
<path d="M92.9541 36.7481C91.8349 43.361 92.0401 51.1956 92.0401 51.1956C92.2757 52.4806 92.1164 53.8064 91.5831 55C87.3178 50.413 90.2525 36.7512 91.8349 33.9891C93.7841 30.5868 96.6349 34.5613 96.6349 34.5613L95.1769 35.0191C95.1769 35.0191 94.6702 34.3108 94.0453 34.4593C93.4204 34.6077 92.9541 36.7481 92.9541 36.7481Z" fill="#2C2A40"/>
<path d="M105.01 32.39C105.01 32.39 105.445 29.0465 107.898 28.9598C111.784 28.8238 112.764 38.9874 113.071 44.4806C113.379 49.9738 111.853 51.0811 111.853 51.0811L111.806 47.9417C111.806 47.9417 109.795 34.4252 108.8 32.0467C107.709 29.4393 106.773 30.726 105.791 32.0467L104.914 32.4488" fill="#2C2A40"/>
<path d="M20.0737 28.9197C13.7939 27.2989 8.88194 21.4037 7.57934 19.984C7.42677 19.7954 7.30026 19.5873 7.20317 19.3654V19.3654C5.95653 16.7982 3.94512 8.35113 3.49744 6.43346C3.46636 6.30356 3.44459 6.20149 3.42905 6.12416C3.41351 6.04684 3.40729 6.03137 3.40729 6.03137L6.97934 4.48486C6.97934 4.48486 7.27157 7.88718 8.99075 10.6431C10.7099 13.3989 12.2986 17.757 12.2986 17.757C15.6654 19.4056 19.2748 22.4646 19.2748 22.4646C21.1401 26.3834 20.0737 28.9197 20.0737 28.9197Z" fill="#F9B587"/>
<path d="M20.0738 28.9197C13.7939 27.2989 8.88196 21.4037 7.57935 19.984C7.42678 19.7954 7.30027 19.5873 7.20319 19.3654C7.2778 19.4241 11.9224 23.3863 13.6696 24.3946C15.4167 25.4029 17.4219 26.3061 18.4012 25.6318C19.3805 24.9575 19.6447 23.6461 19.2624 22.4677C21.1401 26.3834 20.0738 28.9197 20.0738 28.9197Z" fill="#F39568"/>
<path d="M3.6249 6.22317C4.77578 6.06325 5.9106 5.80454 7.01664 5.44991C7.11923 5.40042 7.16275 5.25196 7.17519 5.07875C7.53695 4.70799 7.82493 4.27246 8.0239 3.79515C8.10473 3.5075 7.80628 3.26315 7.44876 3.05592C7.75965 2.45587 7.80317 0.847505 7.06327 0.253646C6.25808 -0.392794 5.48398 0.405203 5.48398 0.405203C5.37789 0.303297 5.24944 0.227324 5.10878 0.183283C4.96811 0.139243 4.81908 0.128341 4.67346 0.151439C4.52783 0.174537 4.38959 0.231002 4.26966 0.316375C4.14973 0.401748 4.0514 0.513691 3.98242 0.643366C3.54718 0.355715 2.76686 0.927923 2.76686 0.927923C2.36893 0.720691 1.91504 1.13825 1.81245 1.52797C1.70986 1.91769 2.24458 5.17154 2.5337 5.54889C2.85028 5.84161 3.22083 6.07058 3.6249 6.22317V6.22317Z" fill="#F9B587"/>
<path d="M5.93166 3.96829C6.28607 4.46936 6.66535 4.13841 6.66535 4.13841C6.541 4.16624 6.35447 3.99613 6.20213 3.8291C6.12142 3.75356 6.05041 3.66837 5.99073 3.57548C5.92207 3.47936 5.87488 3.36973 5.85236 3.25396C5.82984 3.13819 5.8325 3.01896 5.86016 2.90429C5.99384 2.43725 6.21768 2.3692 6.21768 2.3692L5.87571 0.927856C5.83665 1.39779 5.84707 1.87049 5.90679 2.33827C5.72099 2.53276 5.60935 2.78574 5.59118 3.05346C5.57302 3.32117 5.64947 3.58679 5.80731 3.80436C5.75041 3.87109 5.67332 3.91769 5.58758 3.9372C5.50185 3.95672 5.41206 3.94809 5.33166 3.91262C5.06766 3.77066 4.87092 3.53044 4.78451 3.24452L4.32129 1.23716C4.32129 1.23716 4.43942 3.52908 4.8871 3.94973C4.94898 4.02787 5.02754 4.09135 5.1171 4.13557C5.20666 4.17979 5.30499 4.20366 5.40496 4.20543C5.50493 4.20721 5.60404 4.18685 5.69514 4.14584C5.78623 4.10483 5.86702 4.04418 5.93166 3.96829V3.96829Z" fill="#F39568"/>
<path d="M3.13062 1.85583C3.13062 1.85583 3.4415 3.53844 3.61248 3.88176C3.65251 3.95966 3.70808 4.02862 3.77581 4.08443C3.84354 4.14023 3.92199 4.1817 4.00638 4.20631C4.09076 4.23092 4.17931 4.23814 4.2666 4.22755C4.35389 4.21695 4.43809 4.18874 4.51405 4.14467C4.58225 4.10365 4.6394 4.04674 4.68056 3.97884C4.72173 3.91094 4.74567 3.8341 4.75032 3.75495L5.0612 4.02404C5.0612 4.02404 4.47674 4.98287 3.67466 4.29932C3.27984 3.96218 3.13062 1.85583 3.13062 1.85583Z" fill="#F39568"/>
<path d="M3.53787 4.09509C3.5423 4.20046 3.52049 4.30529 3.47439 4.40026C3.42829 4.49523 3.35933 4.5774 3.27362 4.63946C2.98139 4.82195 2.76999 4.73225 2.65186 4.54358C2.66416 4.62931 2.70527 4.70838 2.76849 4.76791C2.83172 4.82744 2.91333 4.86393 3.00004 4.87144C3.43839 4.94877 3.73062 4.48791 3.81767 4.33016L3.53787 4.09509Z" fill="#F39568"/>
<path d="M4.2684 6.22312C4.04447 6.38169 3.77132 6.45621 3.49741 6.43345C3.46632 6.30354 3.44456 6.20147 3.42902 6.12415C3.70189 6.2006 3.98513 6.234 4.2684 6.22312V6.22312Z" fill="#F39568"/>
<path d="M7.1006 5.37256C6.89627 5.56623 6.65678 5.71948 6.3949 5.82414C6.65869 5.8385 6.92074 5.77386 7.14724 5.63856L7.1006 5.37256Z" fill="#F39568"/>
<path d="M12.2985 17.757C12.2985 17.757 11.1016 18.756 10.4332 18.8612C10.8844 18.9789 11.3596 18.9693 11.8055 18.8332C12.2514 18.6972 12.6504 18.4401 12.9576 18.091L12.2985 17.757Z" fill="#F39568"/>
<path d="M16.1317 47.985C16.3018 48.1891 16.5403 48.3253 16.8032 48.3685C17.0115 51.6533 17.4499 54.437 18.1058 55.6371C20.1235 59.3271 33.28 59.5714 36.022 56.3547C38.764 53.1379 38.0397 34.2984 33.4759 31.8982C30.0562 30.1043 23.4686 30.5837 20.3442 30.9456C19.7043 31.017 19.1011 31.279 18.6135 31.6974C18.1258 32.1157 17.7766 32.6709 17.6115 33.2901C17.0799 35.3191 16.7752 38.4709 16.6789 41.7928C16.4843 41.8226 16.2956 41.8821 16.1193 41.9691C15.5099 42.2815 15.7524 47.4313 16.1317 47.985Z" fill="#2C2A40"/>
<path d="M65.4844 29.693C65.4844 29.693 64.4772 33.4046 62.8886 37.5121C62.6492 38.1307 62.3943 38.7493 62.1269 39.3958C61.045 41.9568 59.7642 44.4838 58.3963 46.2004C57.6595 47.1283 56.8947 47.8057 56.1175 48.1459C56.1175 48.1459 53.8885 48.4552 52.3216 47.5273C50.7548 46.5994 44.6553 43.5837 43.9278 42.2846C43.9278 42.2846 46.275 38.9751 48.504 38.6782C48.504 38.6782 49.3341 39.1019 50.5061 39.7824C52.0228 40.6478 53.4884 41.5989 54.8958 42.6311L55.3123 42.9404C55.3123 42.9404 55.4274 42.7177 55.6232 42.3218C56.1517 41.3351 57.2802 39.2844 58.6481 37.1162C58.9403 36.6523 59.2419 36.1883 59.5528 35.7182L59.7611 35.4089C62.186 31.8302 62.5 29.2228 62.5 29.2228C62.5 29.2228 64.8191 29.0311 65.4844 29.693Z" fill="#F9B587"/>
<path d="M62.8886 37.5121C62.6492 38.1307 62.3943 38.7493 62.1269 39.3958L58.6295 37.1317C58.9217 36.6677 59.2232 36.2038 59.5341 35.7336L62.8886 37.5121Z" fill="#F39568"/>
<path d="M58.3839 46.2035C57.6471 47.1314 56.8823 47.8088 56.1051 48.149C56.1051 48.149 53.876 48.4583 52.3092 47.5304C50.7423 46.6025 44.6428 43.5868 43.9153 42.2877C43.9153 42.2877 46.2625 38.9782 48.4915 38.6813C48.4915 38.6813 49.3216 39.105 50.4936 39.7855C50.3568 40.2494 49.8159 41.9228 48.846 42.7331C47.7112 43.6796 50.332 45.8571 52.6014 46.8314C54.8709 47.8057 56.4377 47.7593 58.3839 46.2035Z" fill="#F39568"/>
<path d="M55.1942 45.4673C55.4553 44.4033 54.8833 42.6341 54.8833 42.6341L55.2999 42.9434C55.2999 42.9434 55.4149 42.7207 55.6108 42.3248C55.8346 44.6044 55.1942 45.4673 55.1942 45.4673Z" fill="#F39568"/>
<path d="M44.7672 100.594C42.6781 99.4002 41.9506 98.2094 40.6977 96.1309C39.9547 94.8937 39.2646 93.8668 38.8324 93.2327C38.6847 93.0173 38.5982 92.7662 38.5824 92.5059C38.5665 92.2456 38.6218 91.9858 38.7423 91.7543C38.7609 91.7171 38.7796 91.68 38.8013 91.6429C39.2894 90.715 40.1039 89.419 40.8065 89.385L41.6024 89.8149L44.3537 91.3058C44.3537 91.3058 45.5506 94.0493 45.4978 95.2463C45.4542 96.2917 47.4843 98.7135 48.0968 100.074C48.1446 100.175 48.1861 100.278 48.2211 100.384C48.2406 100.449 48.2551 100.515 48.2646 100.582C48.4107 101.76 46.8563 101.788 44.7672 100.594Z" fill="#B0B1CA"/>
<path d="M44.7672 100.594C42.6781 99.4002 41.9506 98.2094 40.6977 96.1309C39.9547 94.8937 39.2646 93.8668 38.8324 93.2327C38.6847 93.0174 38.5982 92.7662 38.5824 92.5059C38.5665 92.2456 38.6218 91.9859 38.7423 91.7543C38.7609 91.7172 38.7796 91.6801 38.8013 91.6429C39.0049 92.5141 39.3998 93.3295 39.9578 94.0308C40.8905 95.1195 42.2739 97.5723 42.6034 98.0517C42.933 98.5311 45.2584 100.526 46.7258 100.814C47.9133 101.055 48.1309 100.814 48.2211 100.409C48.2406 100.473 48.2551 100.54 48.2646 100.606C48.4107 101.76 46.8563 101.788 44.7672 100.594Z" fill="#2C2A40"/>
<path opacity="0.2" d="M44.7672 100.594C42.6781 99.4002 41.9506 98.2094 40.6977 96.1309C39.9547 94.8937 39.2646 93.8668 38.8324 93.2327C38.6847 93.0173 38.5982 92.7662 38.5824 92.5059C38.5665 92.2456 38.6218 91.9858 38.7423 91.7543C38.7609 91.7171 38.7796 91.68 38.8013 91.6429C39.2894 90.715 40.1039 89.419 40.8065 89.385L41.6024 89.8149C41.6024 89.8149 40.048 91.2037 40.5454 92.7317C41.0428 94.2596 42.6998 96.5732 43.5641 97.5846C44.4283 98.596 46.2594 100.279 48.0968 100.074C48.1446 100.175 48.1861 100.278 48.2211 100.384C48.2406 100.449 48.2551 100.515 48.2646 100.582C48.4107 101.76 46.8563 101.788 44.7672 100.594Z" fill="#2C2A40"/>
<path d="M44.0117 107.662C43.9651 109.038 42.9796 110.306 40.8065 109.935C38.3599 109.521 37.6759 107.498 37.1008 106.251C36.5257 105.005 35.1702 100.699 34.6137 98.9858C34.3631 98.11 34.3396 97.1853 34.5453 96.298C34.6138 95.9401 34.7115 95.5884 34.8376 95.2463L35.7205 95.3793L40.7164 96.1309C41.3141 97.4649 41.7011 98.8828 41.8635 100.334C42.0438 102.246 43.3278 104.723 43.8252 106.375C43.9046 106.622 43.9639 106.876 44.0024 107.133C44.0226 107.308 44.0257 107.486 44.0117 107.662V107.662Z" fill="#B0B1CA"/>
<path opacity="0.2" d="M44.0117 107.662C43.9651 109.038 42.9796 110.306 40.8065 109.935C38.3599 109.521 37.6759 107.498 37.1008 106.251C36.5257 105.005 35.1702 100.699 34.6137 98.9858C34.3631 98.11 34.3396 97.1853 34.5453 96.298C34.6138 95.9401 34.7115 95.5884 34.8376 95.2463L35.7205 95.3793C35.6365 96.2423 36.0096 98.6858 36.6998 99.9972C37.5609 101.633 38.2013 105.227 39.6998 106.823C41.1982 108.419 43.8843 108.716 43.8252 106.375C43.9046 106.622 43.9639 106.876 44.0024 107.133C44.0226 107.308 44.0257 107.486 44.0117 107.662Z" fill="#2C2A40"/>
<path d="M44.0117 107.662C43.9651 109.038 42.9796 110.306 40.8065 109.935C38.3599 109.521 37.6759 107.498 37.1008 106.251C36.5257 105.005 35.1702 100.699 34.6137 98.9858C34.3631 98.11 34.3396 97.1853 34.5453 96.298C34.9254 98.061 35.4452 99.7912 36.0998 101.473C37.3433 104.652 38.3505 107.445 39.2086 108.379C40.0666 109.313 43.5236 109.935 44.0117 107.662Z" fill="#2C2A40"/>
<path d="M18.4167 28.3846L20.3753 29.0032C20.3753 29.0032 20.0457 30.3796 19.4768 30.3796C18.9079 30.3796 18.2457 30.0734 18.4167 28.3846Z" fill="#00497B"/>
<path d="M58.7974 71.8167C58.695 71.4449 58.5089 71.1012 58.2533 70.8115C57.4108 69.8464 54.9238 67.2916 49.9341 64.3161C43.5703 60.5303 42.3703 60.8396 39.19 58.5044C39.19 58.5044 28.309 57.2888 23.8417 61.5974C23.795 61.6407 23.7484 61.6871 23.7049 61.7335C23.2961 62.1444 22.9495 62.6122 22.6758 63.1222C22.6758 63.1222 22.6758 68.7361 24.9049 70.7867C27.1339 72.8374 34.1288 80.0843 34.8065 80.0163C34.8065 80.0163 34.8594 81.1421 35.6925 81.1947C35.6925 81.1947 34.5454 85.8157 35.0148 87.7859C35.0148 87.7859 34.2842 89.4469 34.6511 90.6408C35.0179 91.8347 34.5454 93.0286 34.5454 93.7555C34.5454 94.4823 35.1671 97.699 37.2065 98.3733C39.2459 99.0476 41.4843 98.3207 41.6397 96.5577C41.7952 94.7947 41.3786 93.6503 41.5371 92.6636C41.5775 92.3976 41.7641 91.612 42.019 90.5758C42.7682 91.0429 43.9527 91.3955 44.3537 91.3151C44.8729 91.213 45.9672 88.1509 46.6481 87.9437C47.3289 87.7364 49.7227 84.7764 51.445 83.1155C53.0958 81.5164 60.016 76.3975 58.7974 71.8167ZM40.7009 72.5652L48.8367 75.0613C48.8367 75.0613 46.0387 78.8997 44.3755 81.3215C44.7952 79.7441 45.1496 78.7574 44.7703 77.8141C44.3537 76.7748 40.7009 72.5652 40.7009 72.5652V72.5652Z" fill="#2C2A40"/>
<path d="M24.0779 62.0614L23.767 62.114C23.739 61.9408 23.7173 61.8047 23.7048 61.7243C23.7484 61.6779 23.795 61.6315 23.8416 61.5882L23.994 61.5665L24.0779 62.0614Z" fill="#5B5B6C"/>
<path d="M24.1991 62.7511L23.8882 62.8068C23.9504 63.1439 24.0126 63.481 24.081 63.8089L24.3919 63.7501C24.3235 63.4223 24.2489 63.0975 24.1991 62.7511ZM24.5349 64.4368L24.224 64.5017C24.3017 64.8482 24.3763 65.1822 24.4541 65.4977L24.7649 65.4235C24.6841 65.1111 24.6095 64.7801 24.5349 64.4368V64.4368ZM24.9328 66.1039L24.6219 66.1843C24.7183 66.5369 24.8116 66.8679 24.9079 67.1679L25.2188 67.0751C25.1193 66.7782 25.0261 66.4534 24.9328 66.1039V66.1039ZM25.4333 67.737L25.1411 67.8422C25.2563 68.1695 25.3934 68.4888 25.5515 68.7979L25.8282 68.6495C25.6777 68.3537 25.5459 68.049 25.4333 67.737V67.737ZM26.2012 69.1938L25.9774 69.4104C26.1297 69.5681 26.3722 69.8155 26.7017 70.1372L26.9225 69.9176C26.596 69.5928 26.3535 69.3516 26.2012 69.1938ZM27.4261 70.4125L27.2085 70.6321L27.9422 71.3435L28.1598 71.1208L27.4261 70.4125ZM28.6696 71.6095L28.452 71.8353L29.1919 72.5405L29.4064 72.3147L28.6696 71.6095ZM29.9132 72.8003L29.6987 73.0261C29.9443 73.2581 30.193 73.49 30.4417 73.7282L30.6562 73.4993L29.9132 72.8003ZM31.1567 73.9818L30.9422 74.2107L31.6914 74.9066L31.9028 74.6778L31.1567 73.9818ZM32.422 75.1603L32.2106 75.3861C32.4655 75.6242 32.7173 75.8562 32.9629 76.0789L33.1743 75.85L32.422 75.1603ZM33.6966 76.3232L33.4883 76.5552C33.7526 76.7965 34.0106 77.0254 34.25 77.2388L34.4583 77.0037C34.2438 76.7934 33.9888 76.5645 33.7215 76.3232H33.6966ZM34.9868 77.4708L34.7816 77.7058C35.0925 77.9749 35.3598 78.1976 35.5712 78.3677L35.7671 78.1234C35.5868 77.9595 35.3225 77.7398 35.0117 77.4708H34.9868ZM36.3142 78.5007L36.1899 78.7853C36.4168 78.8874 36.5505 79.0946 36.6345 79.4905L36.9453 79.4255C36.9274 79.234 36.8628 79.0497 36.7571 78.8886C36.6515 78.7274 36.508 78.5943 36.3391 78.5007H36.3142ZM37.0479 80.1369L36.7371 80.171C36.7675 80.5178 36.8278 80.8613 36.9174 81.1978L37.2282 81.1112C37.1491 80.7914 37.0971 80.4655 37.0728 80.1369H37.0479ZM36.9547 81.8412C36.9252 82.1733 36.8785 82.5037 36.8148 82.8309L37.1257 82.8866C37.1919 82.5492 37.2396 82.2085 37.2687 81.8659L36.9547 81.8412ZM36.6811 83.5207C36.6282 83.7774 36.5723 84.0403 36.5163 84.3094L36.4728 84.5166L36.7837 84.5785L36.8303 84.3744L36.9951 83.5826L36.6811 83.5207ZM36.3298 85.2064C36.249 85.5992 36.1899 85.9178 36.1402 86.2116L36.451 86.2611C36.5008 85.9735 36.5598 85.658 36.6376 85.2682L36.3298 85.2064ZM36.3298 86.9508L36.0189 86.9137C35.9789 87.2111 35.9571 87.5107 35.9536 87.8107C35.9536 87.8602 35.9536 87.9066 35.9536 87.953H36.2645V87.8231C36.2818 87.5303 36.3181 87.2389 36.3733 86.9508H36.3298ZM36.3111 88.6427H36.0003C36.0003 88.8159 36.0003 88.9953 36.0003 89.1778C36.0003 89.3603 36.0003 89.4871 36.0003 89.648H36.3111C36.3111 89.4809 36.3111 89.3232 36.3111 89.1685C36.3111 89.0139 36.3733 88.819 36.3516 88.6427H36.3111ZM35.9723 90.3594C35.9723 90.5418 35.9505 90.7243 35.9412 90.9037C35.9319 91.0831 35.9194 91.213 35.9101 91.3739L36.221 91.3924L36.249 90.9223C36.249 90.7429 36.2707 90.5604 36.2832 90.3779L35.9723 90.3594ZM36.1992 92.9327C36.1992 92.7719 36.1992 92.6234 36.1992 92.4286C36.1992 92.3172 36.1992 92.2028 36.1992 92.0884H35.8883C35.8883 92.2059 35.8883 92.3203 35.8883 92.4348C35.8883 92.6203 35.8883 92.7905 35.8883 92.9544C35.8883 93.0039 35.8883 93.0565 35.8883 93.109H36.1992C36.2459 93.0441 36.2427 92.9853 36.2396 92.9327H36.1992ZM35.851 93.7864C35.8199 94.0802 35.7702 94.405 35.7018 94.7824L36.0127 94.838C36.0811 94.4638 36.1339 94.1205 36.165 93.8204L35.851 93.7864ZM35.565 95.4659C35.4966 95.7752 35.4189 96.1124 35.3319 96.4526L35.6427 96.5299C35.7298 96.1835 35.8075 95.8495 35.8759 95.534L35.565 95.4659Z" fill="#5B5B6C"/>
<path d="M39.4822 70.4372L40.4521 70.7465L40.5547 70.4372L39.5817 70.1279L39.4822 70.4372Z" fill="#5B5B6C"/>
<path d="M42.1775 71.0156L41.2107 70.6877L41.1112 70.997L42.0749 71.3218L42.1775 71.0156Z" fill="#5B5B6C"/>
<path d="M44.1392 83.4279L44.3941 83.6073L44.9817 82.7784L44.7237 82.599L44.1392 83.4279Z" fill="#5B5B6C"/>
<path d="M43.7312 84.0028L43.1446 84.8326L43.4014 85.0124L43.988 84.1825L43.7312 84.0028Z" fill="#5B5B6C"/>
<path d="M42.591 85.593C42.591 85.7662 42.6065 85.9394 42.6065 86.1126L42.9796 85.5837L42.7247 85.4043L42.591 85.593Z" fill="#5B5B6C"/>
<path d="M43.8097 71.5661L42.8459 71.2568L42.7433 71.5507L43.7102 71.8785L43.8097 71.5661Z" fill="#5B5B6C"/>
<path d="M48.6999 73.2642L47.7392 72.9209L47.6367 73.2302L48.5942 73.5704L48.6999 73.2642Z" fill="#5B5B6C"/>
<path d="M45.4418 72.126L44.4781 71.795L44.3786 72.0889L45.3392 72.4198L45.4418 72.126Z" fill="#5B5B6C"/>
<path d="M48.3175 77.944L48.5476 78.1543C48.7559 77.9254 48.9983 77.6625 49.2315 77.3996L48.9952 77.1924C48.7652 77.4646 48.5227 77.7275 48.3175 77.944Z" fill="#5B5B6C"/>
<path d="M49.4553 76.6727L49.6947 76.8738C49.9496 76.5645 50.1579 76.3077 50.332 76.0696L50.0771 75.8871C49.9092 76.1191 49.704 76.3789 49.4553 76.6727Z" fill="#5B5B6C"/>
<path d="M50.3227 73.8705C50.0957 73.7777 49.7724 73.654 49.3652 73.5055L49.2563 73.7993C49.6605 73.9478 49.9807 74.0684 50.2045 74.1612L50.3227 73.8705Z" fill="#5B5B6C"/>
<path d="M50.9507 74.3777L50.6553 74.4798C50.6708 74.5266 50.6781 74.5758 50.6771 74.6251C50.6555 74.8697 50.5767 75.106 50.447 75.3149L50.7206 75.4633C50.8791 75.2105 50.972 74.9225 50.9911 74.6251C50.9926 74.5409 50.9789 74.4571 50.9507 74.3777V74.3777Z" fill="#5B5B6C"/>
<path d="M45.1309 82.0236L45.389 82.203L45.9734 81.3772L45.7185 81.1947L45.1309 82.0236Z" fill="#5B5B6C"/>
<path d="M47.1641 79.2369L47.4035 79.4379C47.5776 79.2307 47.7859 78.9987 48.075 78.6801L47.8418 78.4729C47.5652 78.7915 47.3413 79.0265 47.1641 79.2369Z" fill="#5B5B6C"/>
<path d="M46.6325 79.9173L46.1351 80.6225L46.39 80.8019L46.8874 80.0998L46.9776 79.9761L46.7258 79.7905L46.6325 79.9173Z" fill="#5B5B6C"/>
<path d="M46.0107 72.6488L46.9714 72.9828L47.0771 72.6735L46.1133 72.3395L46.0107 72.6488Z" fill="#5B5B6C"/>
<path d="M49.9341 39.4484C49.5673 41.0722 48.0191 42.5414 46.788 43.5064C46.2791 43.9046 45.7454 44.2703 45.19 44.6013L44.4594 43.9827L42.19 42.0403L41.1019 44.2797C40.0107 46.5159 40.3123 52.238 40.1879 53.868C40.076 55.2877 42.2802 58.6189 42.7216 59.7447C42.7794 59.8506 42.8032 59.9715 42.79 60.0912C42.6066 60.5582 37.163 61.2603 33.6221 60.0912C30.0811 58.922 22.9152 63.1842 22.679 63.113C22.4427 63.0419 22.2406 52.6184 21.1432 47.9882C20.0458 43.3579 21.8738 31.2117 21.8738 31.2117L20.4002 30.7477L19.7349 30.5374C17.8043 30.6426 18.4199 28.3723 18.4199 28.3723C18.4199 28.3723 18.4852 30.6549 19.6634 30.0611C20.1888 29.7951 20.167 28.2424 19.9743 26.6124C19.7442 24.6236 19.2748 22.4987 19.2748 22.4677C19.2748 22.4368 19.651 22.5667 20.2074 22.7244C22.0727 23.2441 26.1733 24.4534 27.7246 25.3752C28.1909 25.6504 29.3194 26.4546 30.1899 27.0887C30.8334 27.5526 31.3371 27.9269 31.3371 27.9269C34.4086 29.6126 35.3785 29.5012 37.8967 30.2405L38.2293 30.3364C41.2698 31.2364 44.7579 32.3035 46.0418 34.4686C47.0398 36.1419 48.7217 38.0905 49.5113 38.9721C49.7662 39.2814 49.9341 39.4484 49.9341 39.4484Z" fill="#007BB0"/>
<path d="M20.3971 30.7477L19.7318 30.5374C17.8012 30.6426 18.4168 28.3723 18.4168 28.3723C18.4168 28.3723 18.482 30.6549 19.6603 30.0611C20.1857 29.7951 20.1639 28.2424 19.9712 26.6124C19.7442 24.6236 19.2748 22.4987 19.2748 22.4677C19.2748 22.4368 19.651 22.5667 20.2074 22.7244C20.6613 24.5864 21.4945 28.7156 20.3971 30.7477Z" fill="#2C2A40"/>
<path d="M49.9341 39.4484C49.5672 41.0722 48.019 42.5414 46.7879 43.5064C46.2791 43.9046 45.7454 44.2703 45.19 44.6013L44.4594 43.9827C46.9465 42.3125 48.6968 40.2123 49.3807 38.8452C49.6449 39.136 49.9341 39.4484 49.9341 39.4484Z" fill="#2C2A40"/>
<path d="M37.6169 30.1692C37.1288 31.4683 36.3733 32.6436 32.5588 31.7157C28.25 30.6796 30.6033 27.3855 30.6033 27.3855C31.2469 27.8495 31.3184 27.9082 31.3184 27.9082C34.3899 29.5939 34.4707 29.232 36.9765 29.9713L37.6169 30.1692Z" fill="#2C2A40"/>
<path opacity="0.2" d="M46.7848 43.5063C46.276 43.9045 45.7422 44.2702 45.1869 44.6012L42.1869 42.031L41.0988 44.2703C40.0076 46.5065 40.3091 52.2286 40.1848 53.8586C38.0335 48.7737 41.7951 39.4545 41.7951 39.4545C42.8832 41.5546 46.7226 43.4599 46.7848 43.5063Z" fill="#2C2A40"/>
<path opacity="0.2" d="M42.7869 60.0911C42.6035 60.5581 37.1599 61.2603 33.6189 60.0911C30.078 58.9219 22.9121 63.1841 22.6759 63.113C22.4396 63.0418 22.2375 52.6184 21.1401 47.9881C20.0427 43.3579 21.8707 31.2116 21.8707 31.2116L19.7318 30.5373C17.8012 30.6425 18.4168 28.3722 18.4168 28.3722C18.4168 28.3722 18.482 30.6549 19.6603 30.061C20.1857 29.795 20.1639 28.2423 19.9712 26.6123C19.9712 26.6123 23.7018 29.2816 25.8344 29.9033C25.8344 29.9033 25.2344 33.717 24.6624 38.6874C24.0904 43.6579 24.4541 47.0695 25.595 50.5461C26.736 54.0226 29.3039 57.3507 32.8604 57.7188C36.4169 58.0868 39.8801 60.5551 42.7123 59.7323C42.7747 59.841 42.8009 59.9667 42.7869 60.0911V60.0911Z" fill="#2C2A40"/>
<path d="M43.7693 18.4994C43.6791 18.586 43.62 18.6324 43.62 18.6324L31.9122 22.709C31.9122 22.709 30.1557 21.9079 30.2645 18.8674C30.268 18.1158 30.4842 17.3803 30.8883 16.7453C31.2924 16.1102 31.8681 15.6011 32.5495 15.2764C32.4583 15.1851 32.3731 15.088 32.2946 14.9857C32.2703 14.955 32.2551 14.9181 32.2507 14.8793C32.2463 14.8405 32.2529 14.8012 32.2697 14.7659C32.2864 14.7305 32.3128 14.7006 32.3457 14.6793C32.3787 14.658 32.417 14.6463 32.4562 14.6455C32.586 14.6416 32.716 14.6478 32.8448 14.664C32.8136 14.5254 32.7918 14.3849 32.7795 14.2434C32.7779 14.2063 32.7861 14.1694 32.8034 14.1365C32.8207 14.1036 32.8465 14.0758 32.8781 14.056C32.9096 14.0362 32.9459 14.0251 32.9832 14.0238C33.0205 14.0225 33.0575 14.031 33.0904 14.0485C33.285 14.1601 33.4586 14.3045 33.6034 14.4754H33.6189C34.7555 13.3381 36.2748 12.6595 37.8842 12.5701C38.764 12.5175 39.8397 12.4402 40.906 12.3226C42.9548 12.0999 44.5496 12.4649 45.1465 11.8525C45.1589 11.8339 47.6864 16.0157 43.7693 18.4994Z" fill="#2C2A40"/>
<path d="M43.5423 17.757C43.5423 17.757 44.7392 20.5407 42.7558 22.2078C42.7558 22.2078 42.4604 18.8674 43.5423 17.757Z" fill="#2C2A40"/>
<path d="M36.5817 30.6766L36.5195 30.7261C36.1768 30.9827 35.7902 31.1755 35.3785 31.2952C34.362 31.6045 32.1174 30.6271 31.1412 30.1569C31.0151 30.0964 30.9162 29.9911 30.8638 29.8619C30.8115 29.7326 30.8096 29.5886 30.8583 29.4579C31.4003 28.0128 31.6731 26.4815 31.6635 24.939C31.7012 23.385 32.0258 21.8512 32.621 20.4139C32.3785 21.5274 32.8013 23.1358 33.4542 24.7442C34.3285 26.805 35.3747 28.7893 36.5817 30.6766V30.6766Z" fill="#F9B587"/>
<path d="M41.9693 23.5935C41.9738 24.4646 41.7078 25.3158 41.2076 26.0308L39.6532 28.2299C39.3723 28.6294 38.9726 28.9312 38.5102 29.0927C38.0478 29.2541 37.5462 29.2672 37.076 29.13C35.7015 28.7594 34.4526 28.0275 33.4604 27.0113C31.421 24.7905 32.335 21.0758 32.335 21.0758C32.335 21.0758 33.4884 17.3611 36.9951 16.7022C40.5019 16.0434 43.275 18.5086 43.275 18.5086L42.9859 21.2335C42.9704 21.3854 42.9454 21.5362 42.9112 21.6851C42.8022 22.1851 42.602 22.6611 42.3206 23.0893L41.9693 23.5935Z" fill="#F9B587"/>
<path d="M40.1039 20.182C40.1039 20.182 38.764 18.0168 37.163 19.2757L37.2842 19.7273C37.2842 19.7273 38.7796 18.9633 39.8708 20.6552L40.1039 20.182Z" fill="#2C2A40"/>
<path d="M41.9692 23.5935C41.9726 24.0582 41.898 24.5203 41.7485 24.9606C41.4376 24.5987 40.7288 24.1873 39.1433 24.0327C39.1433 24.0327 40.1319 23.5687 40.9589 23.7574C41.0103 23.7692 41.0639 23.7689 41.1152 23.7562C41.1665 23.7436 41.2141 23.7191 41.254 23.6848C41.294 23.6504 41.3253 23.6071 41.3453 23.5585C41.3653 23.5098 41.3735 23.4572 41.3692 23.4048L41.2604 21.8923C41.4307 21.7363 41.651 21.6454 41.8822 21.6356C42.2234 21.6296 42.5645 21.6523 42.9019 21.7036C42.7929 22.2037 42.5927 22.6796 42.3112 23.1079L41.9692 23.5935Z" fill="#F39568"/>
<path d="M42.9299 21.2491C42.5586 21.1838 42.1806 21.1641 41.8045 21.1903L41.6366 21.6326C42.029 21.5946 42.4252 21.6281 42.8055 21.7316C42.841 21.7439 42.8786 21.7487 42.9161 21.7457C42.9535 21.7427 42.9899 21.732 43.023 21.7142C43.056 21.6965 43.085 21.6721 43.108 21.6426C43.1311 21.6131 43.1477 21.5791 43.1568 21.5429C43.1621 21.5087 43.1603 21.4738 43.1516 21.4402C43.1429 21.4067 43.1275 21.3753 43.1063 21.3478C43.0851 21.3204 43.0586 21.2975 43.0282 21.2805C42.9979 21.2635 42.9645 21.2528 42.9299 21.2491Z" fill="#2C2A40"/>
<path d="M40.7257 25.5978L36.6251 24.1688C36.6251 24.1688 36.5474 26.5412 38.8013 27.036C40.5671 27.4196 40.7257 25.5978 40.7257 25.5978Z" fill="white"/>
<path d="M36.8583 28.994L36.6718 30.5962L36.5816 30.6766L36.5194 30.7261C35.9163 30.4508 33.4106 29.1796 33.1432 27.3485C33.0044 26.4705 33.112 25.5714 33.4541 24.7504C33.5497 24.5117 33.6773 24.2869 33.8334 24.0823C34.337 28.0321 36.8583 28.994 36.8583 28.994Z" fill="#F39568"/>
<path d="M33.5754 20.7232C33.5754 20.7232 33.1557 19.0282 31.8345 19.4179C30.5132 19.8077 30.3049 23.3894 32.1453 23.1605C33.9858 22.9316 33.5754 20.7232 33.5754 20.7232Z" fill="#F9B587"/>
<path d="M37.536 16.628C37.536 16.628 36.7619 16.7084 36.6687 17.6796C36.5754 18.6508 36.4106 20.3087 35.1516 20.2716C33.8925 20.2345 33.7712 21.7593 33.7712 21.7593L32.8728 21.5428C32.8728 21.5428 32.7826 18.8395 33.3826 17.9178C33.9826 16.9961 36.5039 15.6692 37.536 16.628Z" fill="#2C2A40"/>
<path d="M37.3931 20.8995C37.5677 20.7327 37.7874 20.6202 38.0254 20.5759C38.2633 20.5315 38.5091 20.5572 38.7325 20.6498C38.956 20.7424 39.1474 20.8979 39.2834 21.0972C39.4193 21.2965 39.4938 21.5309 39.4977 21.7717C39.4977 21.7717 39.0159 20.5716 37.3931 20.8995Z" fill="#2C2A40"/>
<path d="M41.4532 22.4089C41.5537 22.3542 41.6647 22.3216 41.7789 22.313C41.8931 22.3045 42.0078 22.3203 42.1154 22.3594C42.4698 22.4986 42.3392 22.9594 42.3392 22.9594C42.3392 22.9594 42.2584 22.3656 41.4532 22.4089Z" fill="#2C2A40"/>
<path d="M71.5173 30.8983L57.1418 21.8602L51.1265 31.3307L65.5021 40.3688L71.5173 30.8983Z" fill="#2C2A40"/>
<path d="M71.5156 30.8961L65.5 40.3669L51.1248 31.3292L51.7465 31.2859L71.2576 29.9156L71.4317 30.5776L71.5156 30.8961Z" fill="#2C2A40"/>
<path d="M71.4317 30.5776L65.6803 39.6586L65.2451 39.3865L61.3062 30.3332L71.2545 29.9156L71.4317 30.5776Z" fill="white"/>
<path d="M71.2586 29.9185L57.5112 21.2753L51.4959 30.7457L65.2433 39.3889L71.2586 29.9185Z" fill="#2C2A40"/>
<path d="M66.7902 26.1422C66.7217 26.0229 66.6301 25.9182 66.5207 25.8343C66.4113 25.7505 66.2863 25.689 66.1529 25.6535C66.1529 25.4401 65.9415 25.239 65.6834 25.1277C65.5321 25.067 65.3647 25.0583 65.2078 25.1029C65.1332 24.8431 64.8534 24.639 64.6668 24.6947L64.5456 24.7225C64.533 24.6084 64.4865 24.5007 64.4119 24.4132C64.3319 24.2724 64.2144 24.1563 64.0723 24.0777C63.9303 23.9991 63.7691 23.9611 63.6067 23.9678C63.6067 23.9678 61.8192 24.2771 61.3964 25.5143C60.9735 26.7515 60.4295 28.1712 61.0606 28.0846C61.3073 28.0064 61.5193 27.8458 61.6606 27.6299C61.4368 28.3784 61.3497 28.9537 61.7663 28.8981C62.089 28.7719 62.3566 28.5364 62.5217 28.2331C62.3508 28.8702 62.3197 29.3311 62.6896 29.2816C63.0596 29.2321 63.4513 28.6846 63.7777 28.066C63.5663 28.7867 63.4979 29.3342 63.899 29.2816C64.3902 29.2136 64.7321 28.2207 65.2264 27.4629C65.8047 26.5752 65.7829 27.0979 66.4078 26.8443L66.8617 27.1289C66.9247 26.9695 66.951 26.7982 66.9386 26.6274C66.9262 26.4567 66.8755 26.2909 66.7902 26.1422V26.1422Z" fill="#F9B587"/>
<path d="M30.6095 27.4041C30.6095 27.4041 31.107 23.2935 29.394 22.9594C26.0707 22.3099 22.3836 27.2185 20.3753 32.3034C17.3628 39.9679 20.8447 45.7271 20.8447 45.7271L20.9069 42.7887C20.9069 42.7887 20.6333 36.4048 23.6053 31.3446C26.5774 26.2844 28.651 24.9451 29.0831 25.2977C29.5152 25.6503 29.5339 26.6246 29.5339 26.6246L30.6095 27.4041Z" fill="#2C2A40"/>
<path d="M38.2169 30.3364C38.2169 30.3364 39.2117 27.7784 42.3982 28.9197C45.1962 29.9157 44.8853 32.8726 44.4687 36.7636C44.0521 40.6546 40.25 50.2832 40.25 50.2832C40.25 50.2832 40.0884 46.8809 40.5174 44.8673C40.5174 44.8673 43.1257 36.3121 42.1868 32.9252C41.248 29.5384 39.1713 30.6209 39.1713 30.6209L38.2169 30.3364Z" fill="#2C2A40"/>
</g>
<defs>
<clipPath id="clip0_38_89">
<rect width="131" height="110" fill="white"/>
</clipPath>
</defs>
</svg>
