<svg width="153" height="114" viewBox="0 0 153 114" fill="none" xmlns="http://www.w3.org/2000/svg">
<g clip-path="url(#clip0_38_252)">
<path d="M73.329 86.3342L55.324 93.5888L33.036 37.9137L48.2558 31.7818C48.9946 31.4851 49.8206 31.4946 50.5525 31.8081C51.2844 32.1216 51.8625 32.7136 52.16 33.4541L73.329 86.3342Z" fill="#F4A640"/>
<path d="M66.8539 35.6371L32.3786 41.767L40.9691 90.3966L75.4445 84.2668L66.8539 35.6371Z" fill="#ADCFD8"/>
<path d="M58.1452 42.1629L42.7502 44.9001L42.8114 45.2467L58.2065 42.5095L58.1452 42.1629Z" fill="#55769F"/>
<path d="M61.2236 40.7086L39.3602 44.5959L39.4214 44.9425L61.2848 41.0552L61.2236 40.7086Z" fill="#55769F"/>
<path d="M64.3531 44.8152L37.8278 49.5315L37.889 49.8781L64.4143 45.1618L64.3531 44.8152Z" fill="#55769F"/>
<path d="M64.6484 46.4826L38.1231 51.1989L38.1843 51.5454L64.7096 46.8292L64.6484 46.4826Z" fill="#55769F"/>
<path d="M65.237 49.8181L38.7117 54.5344L38.773 54.881L65.2982 50.1647L65.237 49.8181Z" fill="#55769F"/>
<path d="M65.5323 51.4855L39.007 56.2018L39.0683 56.5484L65.5935 51.8321L65.5323 51.4855Z" fill="#55769F"/>
<path d="M65.8263 53.1536L39.3011 57.8699L39.3623 58.2165L65.8876 53.5002L65.8263 53.1536Z" fill="#55769F"/>
<path d="M67.1222 60.4887L40.5969 65.205L40.6582 65.5516L67.1834 60.8353L67.1222 60.4887Z" fill="#55769F"/>
<path d="M67.4273 62.2185L40.9021 66.9348L40.9633 67.2814L67.4886 62.5651L67.4273 62.2185Z" fill="#55769F"/>
<path d="M67.7333 63.9483L41.2081 68.6646L41.2693 69.0111L67.7946 64.2949L67.7333 63.9483Z" fill="#55769F"/>
<path d="M68.0385 65.6773L41.5132 70.3936L41.5745 70.7402L68.0997 66.0239L68.0385 65.6773Z" fill="#55769F"/>
<path d="M68.3444 67.4063L41.8191 72.1226L41.8803 72.4692L68.4056 67.7529L68.3444 67.4063Z" fill="#55769F"/>
<path d="M68.6497 69.1367L42.1244 73.853L42.1856 74.1996L68.7109 69.4833L68.6497 69.1367Z" fill="#55769F"/>
<path d="M68.9555 70.8651L42.4303 75.5814L42.4915 75.928L69.0168 71.2117L68.9555 70.8651Z" fill="#55769F"/>
<path d="M61.8847 34.4245L28.0244 43.3618L40.5494 91.1239L74.4098 82.1866L61.8847 34.4245Z" fill="#DAEEF7"/>
<path d="M53.7369 41.6429L38.6165 45.6339L38.7058 45.9743L53.8262 41.9833L53.7369 41.6429Z" fill="#55769F"/>
<path d="M56.6869 39.9414L35.2136 45.6093L35.3028 45.9497L56.7762 40.2818L56.6869 39.9414Z" fill="#55769F"/>
<path d="M60.1414 43.7768L34.0893 50.6532L34.1785 50.9936L60.2306 44.1172L60.1414 43.7768Z" fill="#55769F"/>
<path d="M60.5699 45.4148L34.5178 52.2911L34.6071 52.6316L60.6592 45.7552L60.5699 45.4148Z" fill="#55769F"/>
<path d="M61.4297 48.6909L35.3777 55.5673L35.4669 55.9077L61.519 49.0313L61.4297 48.6909Z" fill="#55769F"/>
<path d="M61.8597 50.3287L35.8076 57.2051L35.8969 57.5455L61.9489 50.6691L61.8597 50.3287Z" fill="#55769F"/>
<path d="M62.2882 51.9673L36.2361 58.8436L36.3254 59.184L62.3775 52.3077L62.2882 51.9673Z" fill="#55769F"/>
<path d="M64.1774 59.172L38.1254 66.0483L38.2146 66.3888L64.2667 59.5124L64.1774 59.172Z" fill="#55769F"/>
<path d="M64.6235 60.8696L38.5714 67.746L38.6607 68.0864L64.7128 61.21L64.6235 60.8696Z" fill="#55769F"/>
<path d="M65.0684 62.5687L39.0163 69.4451L39.1056 69.7855L65.1577 62.9091L65.0684 62.5687Z" fill="#55769F"/>
<path d="M65.5145 64.2671L39.4624 71.1434L39.5517 71.4839L65.6038 64.6075L65.5145 64.2671Z" fill="#55769F"/>
<path d="M65.9592 65.9654L39.9071 72.8418L39.9964 73.1822L66.0485 66.3058L65.9592 65.9654Z" fill="#55769F"/>
<path d="M66.286 68.1687L40.1555 74.9253L40.2432 75.2667L66.3737 68.5102L66.286 68.1687Z" fill="#55769F"/>
<path d="M66.8502 69.3629L40.7981 76.2393L40.8874 76.5797L66.9394 69.7033L66.8502 69.3629Z" fill="#55769F"/>
<path d="M66.497 89.0872L30.2487 103.692L9.10698 50.8782L39.5668 32.0265C39.969 31.7777 40.4205 31.6201 40.8898 31.5647C41.3591 31.5092 41.8348 31.5573 42.2836 31.7056C42.7325 31.8539 43.1436 32.0987 43.4882 32.4231C43.8329 32.7474 44.1027 33.1433 44.2789 33.5832L66.497 89.0872Z" fill="#FEB546"/>
<path d="M18.5515 95.1455L13.3795 95.0515C11.5847 91.7867 10.2672 88.9511 10.2672 88.9511C16.1074 87.6006 21.0362 88.1552 25.1431 89.7392L27.4055 95.2541L27.8898 91.0077C38.0676 96.517 42.2604 108.181 42.2604 108.181C42.2604 108.181 24.275 106.256 20.4624 104.478C18.9897 103.792 17.1348 101.323 15.412 98.5442C16.7902 97.2266 18.5515 95.1455 18.5515 95.1455Z" fill="#FF5B7E"/>
<path d="M10.2679 88.9484C10.2679 88.9484 33.3596 98.695 42.2611 108.179C42.2611 108.179 24.275 106.256 20.4624 104.477C18.9898 103.791 17.1348 101.322 15.412 98.5428C16.7902 97.2267 18.5515 95.1455 18.5515 95.1455L13.3795 95.0516C11.5854 91.7868 10.2679 88.9484 10.2679 88.9484Z" fill="#E03268"/>
<path d="M11.0045 104.53C14.1141 102.631 17.2508 101.615 20.2863 101.209C21.176 102.319 22.2684 103.624 22.2684 103.624L22.3837 101.022C34.0313 100.49 43.6827 108.32 43.6827 108.32C36.936 112.585 31.1818 113.762 26.4682 113.38C26.1887 112.469 25.7938 111.112 25.7938 111.112L24.9607 113.202C22.8814 112.875 20.8654 112.225 18.9849 111.277C19.4259 110.193 19.8935 108.953 19.8935 108.953L17.3829 110.383C13.1733 107.803 11.0045 104.53 11.0045 104.53Z" fill="#FF5B7E"/>
<path d="M26.4682 113.384C26.1887 112.472 25.7938 111.115 25.7938 111.115L24.9607 113.206C22.8814 112.878 20.8654 112.228 18.9849 111.28C19.4259 110.196 19.8935 108.956 19.8935 108.956L17.3829 110.387C13.1761 107.806 11.0074 104.534 11.0074 104.534C24.5784 102.961 43.6855 108.32 43.6855 108.32C36.936 112.585 31.1818 113.762 26.4682 113.384Z" fill="#E03268"/>
<path d="M78.9665 34.3369L83.1349 31.2657C82.7225 27.5606 82.1655 24.4795 82.1655 24.4795C76.6195 26.7591 72.9131 30.0659 70.4711 33.7353L71.799 39.5489L68.9572 36.3641C63.8166 46.7565 67.1037 58.7099 67.1037 58.7099C67.1037 58.7099 80.6851 46.7243 82.7749 43.064C83.5822 41.6504 83.6751 38.5574 83.485 35.2934C81.6014 35.0164 78.9665 34.3369 78.9665 34.3369Z" fill="#02CCC0"/>
<path d="M82.1655 24.4795C82.1655 24.4795 68.9181 45.8134 67.1037 58.7099C67.1037 58.7099 80.6852 46.7243 82.7749 43.064C83.5822 41.6504 83.6752 38.5574 83.485 35.2934C81.5979 35.0164 78.9665 34.3369 78.9665 34.3369L83.1349 31.2657C82.7225 27.5606 82.1655 24.4795 82.1655 24.4795Z" fill="#06BFAD"/>
<path d="M90.5288 37.6305C86.8944 37.8801 83.7492 38.8667 81.0381 40.295C80.95 41.7171 80.8089 43.4154 80.8089 43.4154L79.2181 41.3574C69.4031 47.6653 66.0238 59.6481 66.0238 59.6481C73.9874 59.2274 79.3628 56.8531 82.993 53.812C82.6974 52.9068 82.2389 51.5682 82.2389 51.5682L84.1218 52.7932C85.632 51.3216 86.9052 49.6236 87.8959 47.76C86.9119 47.1289 85.8194 46.387 85.8194 46.387L88.6927 46.1017C90.6406 41.5586 90.5288 37.6305 90.5288 37.6305Z" fill="#02CCC0"/>
<path d="M82.993 53.812C82.6974 52.9067 82.2389 51.5682 82.2389 51.5682L84.1218 52.7932C85.632 51.3216 86.9052 49.6236 87.8959 47.76C86.9119 47.1289 85.8194 46.387 85.8194 46.387L88.6927 46.1016C90.6434 41.5579 90.5316 37.6298 90.5316 37.6298C78.5444 44.2042 66.0266 59.6474 66.0266 59.6474C73.9874 59.2245 79.3628 56.8531 82.993 53.812Z" fill="#06BFAD"/>
<path d="M123.849 52.8283H126.328C125.894 52.5346 125.383 52.3794 124.86 52.383H62.7668C59.5175 52.383 56.884 54.7257 56.884 57.6146V60.9383C56.884 63.8272 59.5175 66.1699 62.7668 66.1699L124.171 66.151L123.849 52.8283Z" fill="#E03268"/>
<path d="M62.0931 60.9382V57.6146C62.0931 54.7256 64.7266 52.3829 67.9759 52.3829H66.6424C63.3931 52.3829 60.7595 54.7256 60.7595 57.6146V60.9382C60.7595 63.8272 63.3931 66.1699 66.6424 66.1699H67.9585C64.7203 66.1608 62.0931 63.8223 62.0931 60.9382Z" fill="#FEB546"/>
<path d="M76.6363 60.9382V57.6146C76.6363 54.7256 79.2705 52.3829 82.5191 52.3829H81.1856C77.937 52.3829 75.3027 54.7256 75.3027 57.6146V60.9382C75.3027 63.8272 77.937 66.1699 81.1856 66.1699H82.5016C79.2579 66.1608 76.6363 63.8223 76.6363 60.9382Z" fill="#FEB546"/>
<path d="M88.5963 52.3956C85.4896 52.3956 82.9706 54.6353 82.9706 57.3987V61.1543C82.9706 63.917 85.4868 66.1573 88.5963 66.1573H127.254V65.3159H127.094L117.267 64.4885L115.28 57.5578C115.28 57.5578 119.114 53.7286 119.364 53.6311C119.615 53.5337 127.094 53.2329 127.094 53.2329H127.254V52.3956H88.5963Z" fill="#FF5B7E"/>
<path d="M124.747 59.2511C124.747 55.1989 127.101 53.2349 127.101 53.2349H89.3881C86.5344 53.2349 84.221 55.2922 84.221 57.8305V60.7237C84.221 63.262 86.5344 65.3193 89.3881 65.3193H127.101C127.101 65.3193 124.747 64.3538 124.747 59.2511Z" fill="#DAEEF7"/>
<g style="mix-blend-mode:multiply">
<path d="M84.2203 57.8312V60.7237C84.2207 61.0962 84.2712 61.467 84.3706 61.8259C85.6426 59.0583 88.0805 56.3924 92.7213 55.5355C103.555 53.5343 127.101 53.2377 127.101 53.2377H89.3881C86.5344 53.2356 84.2203 55.2929 84.2203 57.8312Z" fill="#DAEEF7"/>
</g>
<path d="M122.829 80.3839H125.634C125.157 80.0216 124.575 79.8261 123.976 79.8272H53.6927C50.0157 79.8272 47.0348 82.7589 47.0348 86.3756V90.5351C47.0348 94.1519 50.0157 97.0836 53.6927 97.0836L123.19 97.0605L122.829 80.3839Z" fill="#284C7A"/>
<path d="M82.9273 79.8425C79.411 79.8425 76.5601 82.6473 76.5601 86.1049V90.8029C76.5601 94.2612 79.411 97.0653 82.9273 97.0653H126.68V96.0135H126.499L115.376 94.9778L113.128 86.3033C113.128 86.3033 117.467 81.5099 117.75 81.3858C118.033 81.2617 126.499 80.8873 126.499 80.8873H126.68V79.8418L82.9273 79.8425Z" fill="#55769F"/>
<path d="M123.843 88.4245C123.843 83.3528 126.507 80.8937 126.507 80.8937H83.8233C80.5936 80.8937 77.9747 83.4692 77.9747 86.6435V90.2617C77.9747 93.4381 80.5936 96.0115 83.8233 96.0115H126.505C126.505 96.0115 123.843 94.8103 123.843 88.4245Z" fill="#DAEEF7"/>
<g style="mix-blend-mode:multiply">
<path d="M77.9747 86.6462V90.2644C77.9749 90.7295 78.0322 91.1927 78.1453 91.6437C79.585 88.1798 82.3444 84.8421 87.5968 83.7699C99.8594 81.2653 126.507 80.895 126.507 80.895H83.8233C80.5936 80.8936 77.9747 83.4691 77.9747 86.6462Z" fill="#DAEEF7"/>
</g>
<path d="M44.7185 66.5759H41.9117C42.4147 66.2815 42.9878 66.1289 43.5702 66.1342H113.882C117.56 66.1342 120.543 68.4607 120.543 71.3307V74.6313C120.543 77.5006 117.56 79.8272 113.882 79.8272L44.3572 79.8089L44.7185 66.5759Z" fill="#02CCC0"/>
<path d="M84.6355 66.1467C88.1532 66.1467 91.0055 68.3716 91.0055 71.1161V74.8458C91.0055 77.5903 88.1532 79.8145 84.6355 79.8145H40.8654V78.9807H41.0457L52.1733 78.1582L54.4224 71.2753C54.4224 71.2753 50.0814 67.472 49.7983 67.3738C49.5153 67.2757 41.0457 66.9776 41.0457 66.9776H40.8654V66.1467H84.6355Z" fill="#06BFAD"/>
<path d="M43.7037 72.9561C43.7037 68.9319 41.038 66.9812 41.038 66.9812H83.7387C86.9699 66.9812 89.5894 69.0245 89.5894 71.5453V74.416C89.5894 76.9403 86.9699 78.9808 83.7387 78.9808H41.038C41.038 78.9808 43.7037 78.0237 43.7037 72.9561Z" fill="#DAEEF7"/>
<g style="mix-blend-mode:multiply">
<path d="M89.5894 71.5453V74.416C89.5892 74.7877 89.5317 75.1572 89.4189 75.5113C87.9791 72.7619 85.2184 70.1121 79.9646 69.2629C67.6963 67.2757 41.038 66.9812 41.038 66.9812H83.7387C86.9699 66.9812 89.5894 69.0245 89.5894 71.5453Z" fill="#DAEEF7"/>
</g>
<path opacity="0.5" d="M107.662 74.6313V71.3307C107.662 68.4607 104.679 66.1342 101.001 66.1342H107.677C111.356 66.1342 114.338 68.4607 114.338 71.3307V74.6313C114.338 77.5006 111.356 79.8271 107.677 79.8271H101.089C104.727 79.7879 107.662 77.4774 107.662 74.6313Z" fill="#55769F"/>
<path d="M39.4102 97.6124H36.3846C36.9234 97.2851 37.5426 97.1151 38.1724 97.1215H113.969C117.935 97.1215 121.149 99.7209 121.149 102.927V106.614C121.149 109.821 117.934 112.42 113.969 112.42L39.0202 112.399L39.4102 97.6124Z" fill="#FEB546"/>
<path d="M82.4416 97.132C86.2339 97.132 89.3085 99.6177 89.3085 102.684V106.852C89.3085 109.918 86.2332 112.403 82.4416 112.403H35.2565V111.471H35.4515L47.4464 110.553L49.871 102.866C49.871 102.866 45.1917 98.6157 44.8863 98.5063C44.5809 98.3969 35.4508 98.0639 35.4508 98.0639H35.2558V97.1362L82.4416 97.132Z" fill="#F4A640"/>
<path d="M38.3164 104.741C38.3164 100.244 35.4424 98.0646 35.4424 98.0646H81.4749C84.9584 98.0646 87.782 100.348 87.782 103.164V106.372C87.782 109.188 84.9584 111.471 81.4749 111.471H35.4424C35.4424 111.471 38.3164 110.402 38.3164 104.741Z" fill="#DAEEF7"/>
<g style="mix-blend-mode:multiply">
<path d="M87.7848 103.164V106.372C87.7845 106.786 87.7226 107.199 87.601 107.595C86.0487 104.524 83.0734 101.565 77.4086 100.614C64.1843 98.3934 35.4452 98.0646 35.4452 98.0646H81.4777C84.9584 98.0646 87.7848 100.348 87.7848 103.164Z" fill="#DAEEF7"/>
</g>
<path d="M144.83 112.312H16.9971C16.6192 112.312 16.3129 112.619 16.3129 112.998V113.314C16.3129 113.693 16.6192 114 16.9971 114H144.83C145.208 114 145.515 113.693 145.515 113.314V112.998C145.515 112.619 145.208 112.312 144.83 112.312Z" fill="#C4DFE8"/>
<path d="M15.5294 56.7093L40.2084 42.5472L43.5444 49.1764L18.2915 62.5797L15.5294 56.7093Z" fill="#F4A640"/>
<path d="M62.0358 16.3708C62.0358 16.3708 61.8415 18.2963 60.3269 18.4296C61.8415 18.5628 62.0358 20.4883 62.0358 20.4883C62.0358 20.4883 62.2308 18.5628 63.7453 18.4296C62.2308 18.2963 62.0358 16.3708 62.0358 16.3708Z" fill="#02CCC0"/>
<path d="M35.8667 1.57764C35.8667 1.57764 35.6074 4.14262 33.5896 4.32002C35.6074 4.49742 35.8667 7.0624 35.8667 7.0624C35.8667 7.0624 36.126 4.49742 38.1431 4.32002C36.126 4.14262 35.8667 1.57764 35.8667 1.57764Z" fill="#FEB546"/>
<path d="M25.2968 24.5188C25.2968 24.5188 25.1228 26.2409 23.7676 26.3601C25.1228 26.4793 25.2968 28.2015 25.2968 28.2015C25.2968 28.2015 25.4709 26.4793 26.8254 26.3601C25.4709 26.2409 25.2968 24.5188 25.2968 24.5188Z" fill="#FF5B7E"/>
<path d="M145.334 65.6118C145.334 65.6118 145.075 68.1768 143.058 68.3542C145.075 68.5316 145.334 71.0966 145.334 71.0966C145.334 71.0966 145.593 68.5316 147.611 68.3542C145.593 68.1768 145.334 65.6118 145.334 65.6118Z" fill="#FF5B7E"/>
<path d="M2.27709 43.0276C2.27709 43.0276 2.01779 45.5926 0 45.77C2.01779 45.9474 2.27709 48.5124 2.27709 48.5124C2.27709 48.5124 2.53639 45.9474 4.55349 45.77C2.53639 45.5926 2.27709 43.0276 2.27709 43.0276Z" fill="#02CCC0"/>
<path d="M150.724 40.2852C150.724 40.2852 150.464 42.8501 148.447 43.0275C150.464 43.2049 150.724 45.7699 150.724 45.7699C150.724 45.7699 150.983 43.2049 153 43.0275C150.983 42.8501 150.724 40.2852 150.724 40.2852Z" fill="#02CCC0"/>
<path d="M87.7848 0C87.7848 0 87.5255 2.56498 85.5084 2.74238C87.5255 2.91979 87.7848 5.48477 87.7848 5.48477C87.7848 5.48477 88.0441 2.91979 90.0619 2.74238C88.0413 2.56498 87.7848 0 87.7848 0Z" fill="#FF5B7E"/>
<path d="M131.003 21.4202C131.003 21.4202 130.864 23.0399 129.766 23.1521C130.863 23.2643 131.003 24.8834 131.003 24.8834C131.003 24.8834 131.143 23.2643 132.241 23.1521C131.145 23.0399 131.003 21.4202 131.003 21.4202Z" fill="#FEB546"/>
<path d="M42.4743 100.35L39.0698 100.524L38.6393 110.664L36.8962 111.506L36.98 111.875L37.628 112.029C37.628 112.029 39.7247 111.992 39.7869 111.992C39.8491 111.992 40.2811 111.514 40.2811 111.514L40.2161 111.431L40.5655 111.194L42.4743 100.35Z" fill="#FFC0BB"/>
<path d="M51.7036 111.506C51.7036 111.506 50.0024 110.648 49.9563 110.665L50.3456 100.341L46.122 100.353L48.0342 111.197L48.2439 111.337C48.1915 111.518 48.1503 111.674 48.1405 111.723C48.1132 111.858 48.8597 111.868 49.119 111.912C49.3783 111.957 50.1359 112.039 50.6216 112.174C51.1074 112.309 51.7204 111.911 51.7204 111.911L51.7036 111.506Z" fill="#FFC0BB"/>
<path d="M51.8175 72.4786C51.3283 71.1954 50.8474 71.7038 49.9598 70.152C49.8169 69.8807 49.7111 69.5913 49.6452 69.2917C49.4402 68.41 48.966 67.6145 48.2886 67.0163C46.2072 65.2135 43.8526 66.0136 43.8526 66.0136C43.8526 66.0136 44.4634 69.4992 44.5808 70.206C44.0601 70.9163 43.5325 71.6414 43.5325 71.6414C43.5325 71.6414 42.4373 77.3709 44.1559 77.854C45.8746 78.3371 46.1877 77.5616 47.0278 77.1577C47.8679 76.7538 48.6863 77.8589 49.9409 77.0876C50.8991 76.5014 50.412 75.0401 50.9194 74.7659C51.4268 74.4918 52.3494 73.8635 51.8175 72.4786Z" fill="#FF5500"/>
<path d="M42.9614 68.9046C42.9307 68.8912 42.143 68.4453 41.4049 68.0267L45.9878 62.9079C45.9878 62.9079 44.599 62.638 44.5144 62.6275C44.4299 62.6169 42.4386 63.2389 42.4386 63.2389L40.3852 63.7999C38.8182 69.537 36.8668 70.5755 36.8661 70.5762C36.5858 70.7652 36.3518 71.0155 36.1819 71.3083C35.4047 72.5704 36.191 73.3607 36.6383 73.7239C37.0856 74.0871 36.3377 75.4334 37.1709 76.1879C38.2612 77.1752 39.2676 76.244 40.0204 76.7972C40.7731 77.3505 40.9353 78.1702 42.714 78.0152C44.4928 77.8603 44.4746 72.0256 44.4746 72.0256C44.4746 72.0256 43.0187 68.9277 42.9614 68.9046Z" fill="#FF5500"/>
<path d="M50.7419 79.3622C50.7419 79.3622 52.2543 86.6063 51.8154 87.3896C51.3765 88.1728 45.6194 88.4168 45.6194 88.4168L45.3755 79.1175L47.5708 75.7889L50.7419 79.3622Z" fill="#FF5B7E"/>
<path d="M48.9156 87.7479L47.8399 84.7909C47.8399 84.7909 44.2992 83.4972 44.0741 83.4811C43.8491 83.465 40.8521 84.7909 40.8521 84.7909C40.8521 84.7909 39.9358 86.6512 39.7569 86.9857C39.6576 87.1708 39.8862 88.3095 40.1063 89.2884L38.8371 89.348L37.9928 108.044C37.9928 108.044 39.8212 109.031 41.79 108.184L43.4116 91.8569L44.8178 91.6465L46.9271 107.835C46.9271 107.835 48.615 109.105 51.0061 108.045L49.4216 90.0289C49.3531 89.2496 49.1829 88.4827 48.9156 87.7479Z" fill="#07085B"/>
<path d="M42.0298 73.59C42.0298 73.59 43.6003 73.2597 46.5225 73.4679C49.4447 73.6762 45.1707 75.3275 45.1707 75.3275C45.1707 75.3275 43.6709 75.2784 43.6066 75.2665C43.5423 75.2546 42.0298 73.59 42.0298 73.59Z" fill="#FFC0BB"/>
<path d="M45.746 71.9337H43.1516V76.502H45.746V71.9337Z" fill="#FFC0BB"/>
<path d="M45.7418 72.7142V71.1561H43.1516V72.4814C43.7093 72.7843 44.5347 72.9554 45.7418 72.7142Z" fill="#F99893"/>
<path d="M49.3762 66.8479C49.2502 66.7903 49.1124 66.7631 48.974 66.7686C48.8357 66.774 48.7005 66.812 48.5794 66.8795C48.5794 65.7531 48.1334 64.6728 47.3395 63.8763C46.5456 63.0798 45.4688 62.6323 44.346 62.6323C43.2233 62.6323 42.1465 63.0798 41.3526 63.8763C40.5587 64.6728 40.1126 65.7531 40.1126 66.8795C39.9916 66.812 39.8564 66.774 39.718 66.7686C39.5796 66.7631 39.4419 66.7903 39.3159 66.8479C38.8399 67.0835 38.6917 67.7595 38.9853 68.3555C39.2788 68.9515 39.903 69.2453 40.3782 69.0097C40.4433 68.9774 40.5035 68.9361 40.5572 68.887C40.8297 70.8328 42.4477 72.2913 44.346 72.2647C46.2443 72.2913 47.8623 70.8328 48.1349 68.887C48.1884 68.9359 48.2484 68.9772 48.3131 69.0097C48.7891 69.2453 49.4132 68.9522 49.7068 68.3555C50.0003 67.7588 49.8521 67.0835 49.3762 66.8479Z" fill="#FFC0BB"/>
<path d="M43.276 67.716C43.2799 67.7867 43.2628 67.8569 43.2269 67.9178C43.191 67.9787 43.138 68.0275 43.0744 68.0582C43.0109 68.0888 42.9397 68.0998 42.8699 68.0899C42.8 68.0799 42.7348 68.0494 42.6822 68.0022C42.6297 67.955 42.5923 67.8932 42.5748 67.8247C42.5573 67.7562 42.5604 67.684 42.5838 67.6172C42.6071 67.5505 42.6497 67.4922 42.7061 67.4498C42.7625 67.4073 42.8302 67.3826 42.9006 67.3787C42.9474 67.3761 42.9942 67.3827 43.0383 67.3982C43.0825 67.4138 43.1232 67.4379 43.1581 67.4692C43.1929 67.5006 43.2213 67.5385 43.2415 67.5808C43.2618 67.6232 43.2735 67.6691 43.276 67.716V67.716Z" fill="#333333"/>
<path d="M46.3435 67.749C46.3474 67.8196 46.3304 67.8898 46.2945 67.9507C46.2586 68.0116 46.2056 68.0605 46.142 68.0911C46.0784 68.1218 46.0072 68.1328 45.9374 68.1228C45.8676 68.1129 45.8023 68.0824 45.7498 68.0352C45.6973 67.988 45.6599 67.9262 45.6424 67.8577C45.6248 67.7891 45.628 67.7169 45.6513 67.6502C45.6747 67.5835 45.7173 67.5252 45.7737 67.4827C45.8301 67.4403 45.8978 67.4156 45.9682 67.4117C46.0149 67.4091 46.0617 67.4157 46.1059 67.4312C46.1501 67.4467 46.1908 67.4709 46.2256 67.5022C46.2605 67.5335 46.2889 67.5714 46.3091 67.6138C46.3293 67.6561 46.341 67.7021 46.3435 67.749Z" fill="#333333"/>
<path d="M43.6674 66.9847C43.499 66.9242 43.326 66.8773 43.1501 66.8445C42.9858 66.814 42.818 66.8072 42.6518 66.8241C42.4862 66.8401 42.324 66.8815 42.171 66.9468L42.1108 66.9693C42.0906 66.9777 42.0724 66.9896 42.0521 66.998L41.9333 67.0562C41.8529 67.0969 41.7789 67.1474 41.6901 67.1874C41.7379 67.1051 41.7931 67.0274 41.855 66.9553C41.9208 66.8845 41.9942 66.8212 42.0738 66.7666C42.2377 66.6526 42.4281 66.5831 42.6267 66.5647C42.8241 66.5444 43.0236 66.573 43.2075 66.6481C43.3871 66.7186 43.5456 66.8346 43.6674 66.9847Z" fill="#FF5500"/>
<path d="M45.1036 66.9791C45.2242 66.8281 45.3817 66.7109 45.5607 66.639C45.744 66.5623 45.9432 66.5319 46.1408 66.5507C46.3395 66.5677 46.5303 66.6358 46.6951 66.7484C46.7751 66.8025 46.8489 66.8653 46.9152 66.9356C46.9776 67.0073 47.0333 67.0845 47.0816 67.1663C46.9928 67.1271 46.918 67.0766 46.8377 67.0373L46.7181 66.9798C46.6979 66.9714 46.6797 66.9595 46.6594 66.9518L46.5993 66.9293C46.4455 66.8654 46.2829 66.8252 46.1171 66.8101C45.9509 66.7947 45.7834 66.8027 45.6194 66.834C45.4439 66.8684 45.2714 66.9169 45.1036 66.9791V66.9791Z" fill="#FF5500"/>
<path d="M44.5214 67.2273C44.5052 67.4148 44.5156 67.6037 44.5522 67.7883C44.5695 67.884 44.5957 67.9779 44.6305 68.0687C44.6668 68.167 44.7235 68.2563 44.7968 68.331C44.8919 68.4011 44.9331 68.4263 44.9604 68.4923C44.9721 68.5253 44.9769 68.5605 44.9744 68.5955C44.9719 68.6305 44.9621 68.6646 44.9457 68.6956C44.8758 68.84 44.7262 68.948 44.5592 69.028C44.6583 69.0269 44.7559 69.0026 44.844 68.9569C44.9321 68.9113 45.0083 68.8455 45.0666 68.765C45.0993 68.7177 45.1209 68.6637 45.13 68.6069C45.1391 68.5501 45.1353 68.492 45.119 68.4369C45.0859 68.3435 45.0214 68.2646 44.9366 68.2139C44.8711 68.156 44.8193 68.0841 44.7849 68.0035C44.7474 67.9236 44.7142 67.8417 44.6857 67.7581C44.6284 67.5821 44.5773 67.4061 44.5214 67.2273Z" fill="#F99893"/>
<path d="M43.3542 69.4683C43.5494 69.6023 43.7608 69.711 43.9833 69.7916C44.2037 69.8714 44.4359 69.9138 44.6703 69.9171C44.9042 69.9169 45.1358 69.8714 45.3525 69.7832C45.5698 69.6884 45.7728 69.5635 45.9556 69.4122C45.8731 69.4999 45.7836 69.5805 45.6879 69.6534C45.5908 69.7257 45.4872 69.7886 45.3783 69.8414C45.268 69.8935 45.1525 69.9337 45.0337 69.9613C44.9142 69.9866 44.7925 69.9997 44.6703 70.0005C44.4269 69.9972 44.1864 69.9465 43.9623 69.8512C43.7387 69.7604 43.5329 69.6308 43.3542 69.4683V69.4683Z" fill="#F99893"/>
<path d="M49.4936 74.5029C48.088 73.1341 46.1443 73.4244 46.1443 73.4244C45.9515 73.6217 45.7328 73.7918 45.4943 73.93C45.1464 74.114 44.762 74.2182 44.3691 74.235H44.3229C43.93 74.2182 43.5456 74.114 43.1977 73.93C42.9592 73.7918 42.7405 73.6217 42.5477 73.4244C42.5477 73.4244 40.6075 73.1348 39.1984 74.5029C37.7894 75.8709 36.3867 78.8917 36.3867 78.8917C36.3867 78.8917 38.1647 80.5177 39.8596 80.7253C39.8596 80.7253 40.6864 84.5419 40.8521 84.7922C41.5233 85.0818 42.2276 85.2874 42.9489 85.4044C43.3845 85.4862 43.8266 85.5277 44.2698 85.5285H44.4278C44.871 85.5277 45.3131 85.4862 45.7487 85.4044C46.47 85.2874 47.1743 85.0818 47.8455 84.7922C48.0112 84.5433 48.838 80.7253 48.838 80.7253C50.5329 80.5149 52.3109 78.8917 52.3109 78.8917C52.3109 78.8917 50.8998 75.8695 49.4936 74.5029Z" fill="#02CCC0"/>
<path d="M44.4977 83.7616C44.4977 83.7616 45.0198 83.6747 45.3077 84.0589L45.2875 85.0504L44.6493 85.3484C44.6493 85.3484 43.8589 84.6732 43.9183 84.6563C43.9777 84.6395 44.4977 83.7616 44.4977 83.7616Z" fill="#E03268"/>
<path d="M46.1227 90.2343L37.7146 92.6745L36.9004 86.4997L45.3077 84.0588L46.1227 90.2343Z" fill="#E03268"/>
<path d="M37.0206 91.6809L37.7587 92.3064L45.8061 89.9924L45.0827 84.1732L44.5152 83.9341L37.0206 91.6809Z" fill="#DAEEF7"/>
<g style="mix-blend-mode:multiply">
<path d="M45.8061 89.9924L45.2322 89.4918L44.1825 88.3348L44.2461 85.1507L44.5151 83.9341L45.0855 84.1634L45.8061 89.9924Z" fill="#DAEEF7"/>
</g>
<path d="M45.2323 89.4918L36.8242 91.9319L36.0896 86.2018L44.4977 83.7616L45.2323 89.4918Z" fill="#FF5B7E"/>
<path d="M41.1065 77.4122C40.9131 77.6487 40.7339 77.8964 40.5697 78.1541C40.4064 78.4088 40.2638 78.6764 40.1434 78.9542C40.0225 79.2301 39.9345 79.5193 39.8813 79.8159C39.8307 80.1172 39.8234 80.4242 39.8596 80.7275C39.7663 80.4295 39.7358 80.1152 39.7702 79.8047C39.804 79.4927 39.8851 79.1877 40.0106 78.9002C40.1352 78.6145 40.2918 78.3439 40.4775 78.0938C40.6585 77.8416 40.8697 77.6127 41.1065 77.4122V77.4122Z" fill="#DAEEF7"/>
<path d="M39.362 87.8285C37.8817 85.3147 38.5666 82.2554 39.1523 80.5641C37.9907 80.1883 36.9157 79.3398 36.5334 79.0215C34.1697 84.3737 38.1717 88.9539 38.1717 88.9539L38.1801 88.9462C38.2563 89.1187 38.3115 89.273 38.3115 89.273C39.255 90.9839 39.2963 90.9559 39.3641 90.9327C39.4319 90.9096 39.2453 90.0913 39.3284 90.0969C39.4116 90.1025 40.0078 91.0786 40.0511 90.9874C40.0944 90.8963 39.6548 89.923 39.7191 89.9062C39.7834 89.8894 40.344 90.8444 40.4677 90.7623C40.5914 90.6803 39.9414 89.6551 40.0658 89.6299C40.1902 89.6047 40.8297 90.6712 40.9297 90.5779C41.0142 90.4994 40.3286 89.2884 40.1084 88.9056C40.1012 88.8944 40.0972 88.8815 40.0971 88.8681C40.0969 88.8548 40.1005 88.8418 40.1075 88.8304C40.1144 88.8191 40.1245 88.81 40.1364 88.8042C40.1483 88.7984 40.1617 88.7961 40.1748 88.7976C41.0506 88.8488 41.1212 88.8011 41.1051 88.7036C41.0925 88.6314 40.0413 88.1406 39.362 87.8285Z" fill="#FFC0BB"/>
<path d="M49.2657 73.6958C47.4485 80.2478 49.6418 82.1803 49.6509 82.2315L49.3231 83.7559C49.3231 83.7559 44.8541 80.8403 47.6869 73.0739C47.7037 73.022 47.7312 72.9743 47.7676 72.9337C47.804 72.8932 47.8485 72.8609 47.8982 72.8387C47.9479 72.8166 48.0017 72.8051 48.0561 72.8052C48.1105 72.8052 48.1642 72.8167 48.2139 72.839L49.0617 73.2331C49.1451 73.2731 49.2115 73.3418 49.2489 73.4266C49.2863 73.5115 49.2923 73.607 49.2657 73.6958V73.6958Z" fill="#E03268"/>
<path d="M53.2272 89.693C53.2272 89.693 53.1699 89.5479 53.1154 89.3761L53.0294 88.745C52.9763 87.3047 52.738 82.1972 51.9545 79.1919C51.3576 79.6673 50.0898 80.5655 48.8597 80.7268C49.6285 82.3445 51.2451 86.0727 51.5254 89.4623C51.2409 90.1088 50.8572 91.005 50.89 91.0562C50.9397 91.1354 51.02 91.1263 51.6085 90.5366C51.6174 90.5285 51.6283 90.5228 51.64 90.5201C51.6518 90.5174 51.664 90.5179 51.6755 90.5213C51.687 90.5248 51.6975 90.5312 51.7058 90.5398C51.7142 90.5485 51.7201 90.5592 51.7232 90.5709C51.807 90.9818 52.0796 92.272 52.1879 92.2748C52.3179 92.2748 52.1027 91.1179 52.2068 91.0576C52.311 90.9973 52.4927 92.1332 52.6318 92.1136C52.7708 92.0939 52.5703 91.0618 52.6262 91.0351C52.6821 91.0085 52.9756 91.9733 53.0679 92.0112C53.1601 92.049 52.9644 90.9783 53.0225 90.9243C53.0805 90.8703 53.4572 91.5645 53.5208 91.5393C53.5844 91.514 53.6298 91.5014 53.2272 89.693Z" fill="#FFC0BB"/>
<path d="M39.3662 66.8241C39.3662 66.8241 39.1041 61.9522 44.5145 61.6304C44.5145 61.6304 44.346 66.416 40.1112 66.8802L39.7848 66.2443L39.3662 66.8241Z" fill="#FF5500"/>
<path d="M44.5144 61.6297C44.5144 61.6297 48.9037 61.3835 49.1357 66.775C48.9437 66.7636 48.7517 66.7995 48.5766 66.8795C48.5766 66.8795 45.1036 66.0079 44.2419 62.6282L44.5144 61.6297Z" fill="#FF5500"/>
<path d="M38.3709 111.877C37.4889 111.965 37.073 111.773 36.8934 111.507L36.2958 111.898C36.2435 111.93 36.2032 111.978 36.1811 112.036C36.159 112.093 36.1563 112.156 36.1735 112.215C36.1906 112.275 36.2267 112.326 36.2761 112.363C36.3255 112.399 36.3854 112.418 36.4468 112.417H40.3279C40.3937 112.417 40.4568 112.391 40.5033 112.345C40.5499 112.298 40.576 112.235 40.576 112.168V111.117C40.3279 111.374 39.7394 111.739 38.3709 111.877Z" fill="#07085B"/>
<path d="M50.2261 111.877C51.1081 111.965 51.5247 111.773 51.7036 111.507L52.3012 111.898C52.3535 111.93 52.3938 111.978 52.4159 112.036C52.438 112.093 52.4407 112.156 52.4235 112.215C52.4063 112.275 52.3703 112.326 52.3209 112.363C52.2715 112.399 52.2115 112.418 52.1502 112.417H48.2677C48.2019 112.417 48.1388 112.391 48.0922 112.345C48.0457 112.298 48.0196 112.235 48.0196 112.168V111.117C48.2698 111.374 48.8548 111.739 50.2261 111.877Z" fill="#07085B"/>
<g style="mix-blend-mode:multiply">
<path d="M131.452 77.0048L135.939 77.3666L134.49 81.0072L132.226 80.8249L131.283 83.8632C131.053 83.758 130.884 83.6781 130.85 83.6528C130.78 83.6072 130.531 82.1011 130.311 80.679L131.452 77.0048Z" fill="#DAEEF7"/>
</g>
<path d="M134.012 110.488V112.074C134.012 112.137 134.037 112.198 134.082 112.242C134.126 112.286 134.186 112.311 134.249 112.311H137.94C137.998 112.311 138.055 112.293 138.101 112.258C138.147 112.223 138.181 112.174 138.197 112.118C138.214 112.062 138.211 112.003 138.191 111.948C138.171 111.894 138.133 111.848 138.084 111.816L136.013 110.484C136.013 110.484 135.2 111.085 134.012 110.488Z" fill="#E03268"/>
<path d="M126.764 43.233C126.752 43.2392 126.739 43.2417 126.725 43.2402C126.711 43.2386 126.698 43.2331 126.688 43.2243C126.678 43.2155 126.67 43.2038 126.666 43.1906C126.662 43.1775 126.662 43.1634 126.666 43.1503C126.758 42.7099 127.041 41.3216 126.934 41.2725C126.808 41.2143 126.525 42.4484 126.397 42.4645C126.268 42.4806 126.574 41.2823 126.429 41.2423C126.284 41.2024 126.042 42.3025 125.974 42.3067C125.906 42.311 126.027 41.2318 125.956 41.1561C125.885 41.0804 125.617 42.2177 125.536 42.2464C125.456 42.2752 125.381 41.4289 125.308 41.4267C125.235 41.4246 125.186 41.4113 124.812 43.3649C124.812 43.3649 124.79 44.0808 124.664 44.2491L124.943 44.824L125.814 44.8535C125.814 44.8535 127.707 43.1356 127.691 43.0304C127.676 42.9252 127.595 42.9063 126.764 43.233Z" fill="#FFC0BB"/>
<path d="M135.731 43.6657C135.739 43.6767 135.75 43.6851 135.763 43.6899C135.776 43.6947 135.79 43.6956 135.803 43.6926C135.816 43.6895 135.828 43.6826 135.838 43.6727C135.847 43.6628 135.854 43.6504 135.856 43.6369C135.974 43.2029 136.353 41.8376 136.47 41.8425C136.61 41.8489 136.3 43.0766 136.408 43.1482C136.515 43.2197 136.786 42.015 136.935 42.0459C137.083 42.0767 136.795 43.1678 136.856 43.2008C136.916 43.2337 137.297 42.2191 137.394 42.1854C137.492 42.1518 137.214 43.2856 137.272 43.3473C137.33 43.409 137.782 42.6903 137.848 42.7225C137.914 42.7548 137.963 42.7639 137.408 44.674C137.408 44.674 137.103 45.3219 137.139 45.5287L136.628 45.9123L135.839 45.54C135.839 45.54 134.935 43.1454 134.996 43.0598C135.058 42.9743 135.139 42.9953 135.731 43.6657Z" fill="#FFC0BB"/>
<path d="M128.807 59.3101L128.821 62.6506L125.587 62.1506L126.126 58.3943L128.807 59.3101Z" fill="#FFC0BB"/>
<path opacity="0.6" d="M125.876 60.1234L126.124 58.3943L128.808 59.627V60.2861C128.165 60.4432 126.955 60.5869 125.876 60.1234Z" fill="#FC8D84"/>
<path d="M122.964 110.311V112.051C122.964 112.12 122.936 112.187 122.888 112.235C122.839 112.284 122.773 112.312 122.704 112.312H118.642C118.579 112.312 118.517 112.291 118.466 112.253C118.415 112.214 118.378 112.16 118.36 112.099C118.342 112.038 118.345 111.972 118.367 111.913C118.39 111.853 118.431 111.802 118.485 111.768L120.764 110.311C120.764 110.311 121.657 110.967 122.964 110.311Z" fill="#E03268"/>
<path d="M119.255 80.745C119.262 80.3727 118.296 81.4701 118.315 81.1727C118.694 74.9931 130.729 80.1742 130.729 80.1742L133.664 82.3374L136.981 110.977C136.981 110.977 135.18 111.5 133.996 111.073L126.652 86.5306L125.748 86.18C125.748 86.18 121.734 83.3724 119.255 80.745Z" fill="#07085B"/>
<path d="M118.301 81.4244C118.301 81.4946 118.294 81.571 118.291 81.6467C118.294 81.571 118.298 81.4974 118.301 81.4244Z" fill="#06BFAD"/>
<path d="M118.291 81.651C118.291 81.7281 118.286 81.8081 118.283 81.8887C118.286 81.8081 118.289 81.7281 118.291 81.651Z" fill="#06BFAD"/>
<path d="M118.282 81.9202C118.282 82.0043 118.277 82.0906 118.275 82.1789C118.277 82.0906 118.28 82.0043 118.282 81.9202Z" fill="#06BFAD"/>
<path d="M118.315 81.1727C118.311 81.2393 118.307 81.3088 118.303 81.3796C118.307 81.3088 118.311 81.2393 118.315 81.1727Z" fill="#06BFAD"/>
<path d="M118.317 79.7689C120.796 82.3942 125.75 86.1814 125.75 86.1814L126.654 86.532L125.75 86.1814L122.955 110.977C122.955 110.977 120.965 111.357 119.828 110.739C119.831 110.739 118.154 87.1371 118.317 79.7689Z" fill="#07085B"/>
<path d="M136.983 110.977C136.446 111.122 135.895 111.209 135.34 111.236C135.895 111.209 136.446 111.122 136.983 110.977V110.977Z" fill="#06BFAD"/>
<path d="M134.345 111.169C134.425 111.185 134.506 111.198 134.589 111.209C134.506 111.198 134.425 111.185 134.345 111.169Z" fill="#06BFAD"/>
<path d="M135.34 111.236C135.13 111.245 134.92 111.241 134.711 111.223C134.92 111.241 135.13 111.245 135.34 111.236V111.236Z" fill="#06BFAD"/>
<path d="M133.666 82.3375L134.14 86.4247C132.887 86.9114 129.834 87.431 127.534 82.3823C126.809 80.7906 126.625 79.6477 126.755 78.8217C128.107 79.1867 129.435 79.6385 130.729 80.1743L133.666 82.3375Z" fill="#050645"/>
<path d="M122.624 65.6531C122.764 65.6531 124.847 60.9137 124.847 60.9137C126.63 62.1681 129.051 61.2972 129.051 61.2972C129.051 61.2972 138.789 79.1778 132.258 81.9643C125.727 84.7509 119.567 81.3606 119.567 81.3606C119.567 81.3606 118.178 77.7354 118.178 77.5959C118.178 77.4563 122.485 65.6531 122.624 65.6531Z" fill="#DAEEF7"/>
<path d="M135.315 45.5778C135.315 45.5778 135.734 54.0623 134.945 55.6154C132.316 60.7735 129.051 61.2951 129.051 61.2951C129.051 61.2951 127.928 79.337 128.854 83.6584C128.854 83.6584 131.934 84.6114 136.472 82.4734C136.472 82.4734 132.998 68.4859 133.187 66.7203C133.187 66.7203 138.745 61.7481 138.931 55.8924C139.117 50.0367 137.587 44.8331 137.587 44.8331L135.315 45.5778Z" fill="#55769F"/>
<path d="M120.331 83.0099C120.331 83.0099 120.68 76.2952 122.207 69.9291C123.733 63.5629 124.847 60.9138 124.847 60.9138C122.797 58.6482 123.138 56.6007 123.319 53.9432C123.528 50.8761 126.515 44.742 126.515 44.742L124.5 43.4175C114.842 55.0574 120.193 64.3293 120.193 64.3293C120.193 64.3293 116.58 77.1549 116.091 81.0585C117.451 81.8204 118.868 82.4729 120.331 83.0099V83.0099Z" fill="#55769F"/>
<path d="M133.091 66.7029C132.947 66.5962 132.816 66.4718 132.703 66.3326C132.293 65.8369 132.081 65.2808 131.934 64.6547C132.023 64.9211 132.26 65.6945 132.761 66.2835C132.889 66.444 133.041 66.5836 133.212 66.6973L133.185 66.7225C133.185 66.7337 133.185 66.7463 133.185 66.759C133.056 66.7856 132.83 66.794 132.45 66.5865C132.228 66.4618 132.021 66.3124 131.832 66.1412C132.034 66.2927 132.249 66.4266 132.473 66.5416C132.644 66.6271 132.898 66.7162 133.091 66.7029Z" fill="white"/>
<path d="M120.266 64.2858C120.43 64.1714 120.578 64.0345 120.704 63.8791C121.114 63.3967 121.339 62.8273 121.531 62.2495C121.385 62.8701 121.174 63.4296 120.762 63.9282C120.648 64.0673 120.518 64.1917 120.374 64.2984C120.465 64.302 120.557 64.2911 120.645 64.2662C120.766 64.2354 120.883 64.192 120.995 64.1364C121.22 64.0221 121.434 63.8884 121.636 63.7367C121.447 63.9077 121.24 64.0569 121.018 64.1813C120.905 64.2432 120.786 64.2933 120.663 64.3307C120.535 64.3728 120.399 64.3798 120.267 64.351L120.193 64.3307L120.266 64.2858Z" fill="white"/>
<path d="M124.168 52.4945L123.972 54.7867L124.334 55.0146L125.001 52.2231L124.168 52.4945Z" fill="#07085B"/>
<path d="M124.654 54.5532C124.753 55.0721 124.498 55.558 124.083 55.6372C123.669 55.7165 123.254 55.361 123.155 54.8414C123.055 54.3218 123.31 53.8366 123.724 53.7573C124.138 53.6781 124.554 54.0308 124.654 54.5532Z" fill="#F99893"/>
<path d="M124.059 56.6693C123.967 56.0315 123.956 55.3844 124.027 54.7438C124.039 54.6183 124.045 54.4928 124.048 54.3673C124.061 53.8005 124.192 53.2427 124.432 52.7293C124.672 52.2159 125.016 51.7582 125.441 51.3852C125.867 51.0121 126.365 50.7319 126.904 50.5624C127.444 50.3928 128.012 50.3376 128.574 50.4003C129.136 50.4629 129.678 50.642 130.167 50.9263C130.656 51.2105 131.081 51.5936 131.414 52.0513C131.748 52.509 131.983 53.0313 132.105 53.585C132.226 54.1387 132.232 54.7117 132.121 55.2676C132.251 55.2201 132.39 55.2039 132.527 55.2203C132.664 55.2368 132.796 55.2854 132.911 55.3623C133.343 55.6708 133.383 56.3594 132.999 56.9007C132.615 57.4421 131.951 57.6321 131.522 57.3214C131.463 57.2793 131.411 57.229 131.366 57.1721C130.775 59.0955 128.869 60.2889 126.952 59.871C125.499 59.5569 124.298 58.3452 124.059 56.6693Z" fill="#FFC0BB"/>
<path d="M128.482 54.8337C128.454 54.9047 128.448 54.9832 128.467 55.0575C128.487 55.1318 128.529 55.1979 128.589 55.2461C128.648 55.2942 128.722 55.3219 128.798 55.3249C128.874 55.3279 128.95 55.3061 129.013 55.2627C129.076 55.2194 129.124 55.1568 129.148 55.0842C129.173 55.0117 129.174 54.933 129.151 54.8599C129.128 54.7868 129.082 54.7231 129.019 54.6784C128.957 54.6336 128.883 54.6101 128.806 54.6114C128.736 54.6126 128.669 54.6343 128.611 54.6739C128.554 54.7134 128.509 54.7689 128.482 54.8337V54.8337Z" fill="#333333"/>
<path d="M125.457 54.3807C125.428 54.4517 125.423 54.5302 125.442 54.6045C125.461 54.6788 125.503 54.7449 125.563 54.7931C125.623 54.8412 125.696 54.8689 125.772 54.8719C125.849 54.8749 125.924 54.8531 125.987 54.8097C126.05 54.7664 126.098 54.7038 126.123 54.6312C126.148 54.5587 126.148 54.48 126.125 54.4069C126.102 54.3338 126.056 54.2701 125.994 54.2254C125.932 54.1806 125.857 54.1571 125.78 54.1584C125.711 54.1596 125.643 54.1813 125.585 54.2209C125.528 54.2604 125.483 54.3159 125.457 54.3807V54.3807Z" fill="#333333"/>
<path d="M128.011 57.3328C127.829 57.4232 127.637 57.4895 127.439 57.5298C127.243 57.5703 127.042 57.5782 126.843 57.5529C126.646 57.5242 126.456 57.4576 126.284 57.3566C126.112 57.2506 125.955 57.1208 125.819 56.9709C125.936 57.1412 126.084 57.288 126.256 57.4036C126.43 57.5192 126.628 57.5942 126.834 57.6231C127.041 57.6499 127.25 57.6364 127.452 57.5831C127.651 57.5331 127.84 57.4484 128.011 57.3328Z" fill="#F99893"/>
<path d="M128.194 54.1115C128.37 54.0782 128.548 54.059 128.726 54.054C128.893 54.0502 129.06 54.0701 129.221 54.1128C129.382 54.1554 129.535 54.2223 129.676 54.3113C129.826 54.4082 129.972 54.5129 130.112 54.6247C130.047 54.4434 129.94 54.2805 129.799 54.15C129.656 54.0118 129.479 53.913 129.287 53.8632C129.095 53.8118 128.894 53.8082 128.701 53.8527C128.513 53.8939 128.338 53.983 128.194 54.1115Z" fill="#07085B"/>
<path d="M126.78 53.8779C126.685 53.7101 126.548 53.5698 126.383 53.4705C126.214 53.3655 126.022 53.3038 125.824 53.291C125.626 53.2763 125.427 53.3132 125.247 53.3983C125.072 53.4766 124.918 53.597 124.8 53.7489C124.927 53.7152 125.086 53.6353 125.312 53.5911C125.474 53.5524 125.64 53.5385 125.806 53.5497C125.973 53.5605 126.138 53.5955 126.296 53.6535C126.463 53.7149 126.625 53.79 126.78 53.8779V53.8779Z" fill="#07085B"/>
<path d="M127.397 54.3281C127.231 54.4854 127.076 54.6538 126.933 54.8323C126.787 55.0095 126.653 55.197 126.534 55.3932C126.453 55.5201 126.394 55.6597 126.359 55.8063C126.347 55.8813 126.354 55.9542 126.478 56.0776C126.56 56.1613 126.65 56.236 126.747 56.3006C126.842 56.3654 126.941 56.4228 127.045 56.4724C126.87 56.3314 126.708 56.1752 126.56 56.0054C126.53 55.9677 126.504 55.9268 126.482 55.8834C126.48 55.8395 126.488 55.7957 126.507 55.7558C126.547 55.6543 126.596 55.5567 126.654 55.4641C126.767 55.2719 126.895 55.0854 127.02 54.8968C127.146 54.7082 127.274 54.5217 127.397 54.3281Z" fill="#F99893"/>
<path d="M124.594 50.0472C124.594 50.0472 123.393 49.8151 124.873 49.088C126.354 48.3609 129.975 47.9373 131.871 49.5662C131.871 49.5662 132.508 48.7458 133.081 49.1062C133.653 49.4666 132.484 49.8649 132.484 49.8649C132.484 49.8649 133.285 50.0192 133.439 50.4652C133.553 50.7947 133.064 50.6973 132.8 50.6236C133.235 50.8038 134.514 52.0155 132.854 55.3216C132.559 55.1814 130.659 52.4643 130.659 52.4643C130.659 52.4643 126.839 53.7264 127.535 52.6788C127.535 52.6788 123.083 53.8007 124.162 51.7778C124.16 51.7806 122.521 51.5324 124.594 50.0472Z" fill="#07085B"/>
<path d="M132.851 55.3245C132.851 55.3245 132.563 55.1036 132.123 55.2677C131.683 55.4318 131.403 56.4226 131.403 56.4226C131.403 56.4226 129.961 57.6069 130.664 52.4447C131.355 47.3729 132.311 53.2861 132.311 53.2861L132.851 55.3245Z" fill="#07085B"/>
<path d="M122.977 39.2951L122.353 39.2334C122.469 39.1705 122.601 39.1441 122.732 39.1577L138.354 40.7003C139.172 40.7809 139.776 41.4351 139.705 42.1623L139.623 42.9981C139.553 43.7253 138.831 44.2491 138.016 44.1684L122.57 42.6398L122.977 39.2951Z" fill="#E03268"/>
<path d="M138.313 42.8678L138.395 42.0319C138.464 41.3048 137.861 40.6506 137.044 40.5699L137.379 40.6029C138.197 40.6835 138.801 41.3378 138.73 42.0649L138.648 42.9007C138.578 43.6279 137.856 44.1517 137.041 44.071L136.709 44.0353C137.524 44.1166 138.242 43.5935 138.313 42.8678Z" fill="#FEB546"/>
<path d="M134.654 42.5066L134.736 41.6707C134.806 40.9436 134.202 40.2894 133.385 40.2087L133.721 40.2417C134.538 40.3223 135.143 40.9766 135.072 41.7037L134.989 42.5395C134.92 43.2667 134.198 43.7905 133.382 43.7098L133.051 43.6769C133.866 43.7547 134.583 43.2323 134.654 42.5066Z" fill="#FEB546"/>
<path d="M131.856 40.0608C132.638 40.1379 133.216 40.762 133.148 41.459L133.056 42.4035C132.986 43.0991 132.299 43.5997 131.518 43.5254L121.792 42.5626L121.813 42.3523H121.853L124.346 42.388L125.016 40.6939C125.016 40.6939 124.146 39.6358 124.086 39.6043C124.025 39.5727 122.151 39.3126 122.151 39.3126L122.11 39.3084L122.131 39.098L131.856 40.0608Z" fill="#FF5B7E"/>
<path d="M122.591 40.8883C122.691 39.8694 122.147 39.3169 122.147 39.3169L131.634 40.2523C132.352 40.3224 132.884 40.8981 132.822 41.5369L132.752 42.264C132.69 42.9028 132.057 43.3628 131.339 43.292L121.852 42.3559C121.852 42.3559 122.467 42.1722 122.591 40.8883Z" fill="#DAEEF7"/>
<g style="mix-blend-mode:multiply">
<path d="M132.823 41.5369L132.753 42.264C132.744 42.3578 132.722 42.4498 132.688 42.5375C132.436 41.8097 131.888 41.079 130.742 40.748C128.066 39.9767 122.15 39.3169 122.15 39.3169L131.637 40.2523C132.355 40.3231 132.886 40.8981 132.823 41.5369Z" fill="#DAEEF7"/>
</g>
<path d="M104.032 63.3602L103.388 64.8019C103.362 64.859 103.36 64.9239 103.382 64.9824C103.404 65.0409 103.449 65.0882 103.506 65.1139L106.871 66.6271C106.924 66.6506 106.983 66.6564 107.039 66.6436C107.095 66.6307 107.145 66.6 107.183 66.556C107.22 66.512 107.242 66.457 107.246 66.3993C107.25 66.3416 107.235 66.2842 107.203 66.2358L105.901 64.2024C105.901 64.2024 104.871 64.3896 104.032 63.3602Z" fill="#55769F"/>
<path d="M99.7567 63.3602L99.1123 64.8019C99.0868 64.8591 99.085 64.9241 99.1073 64.9826C99.1296 65.0411 99.1741 65.0883 99.2311 65.1139L102.596 66.6271C102.648 66.6506 102.707 66.6564 102.763 66.6436C102.82 66.6307 102.87 66.6 102.907 66.556C102.945 66.512 102.967 66.457 102.971 66.3993C102.974 66.3416 102.959 66.2842 102.928 66.2358L101.626 64.2024C101.626 64.2024 100.596 64.3896 99.7567 63.3602Z" fill="#55769F"/>
<path d="M92.4886 23.6128L92.1307 25.8644L91.3752 22.8625C91.3752 22.8625 92.4347 22.3471 92.4809 22.5344C92.527 22.7216 92.4886 23.6128 92.4886 23.6128Z" fill="#07085B"/>
<path d="M86.475 28.4589L86.1479 32.3505L89.5713 32.1864L89.1764 28.74L86.475 28.4589Z" fill="#FFC0BB"/>
<path d="M89.3644 30.3794L89.1764 28.74L86.475 28.4595L86.3618 29.8072C86.8986 30.3436 87.8645 30.9003 89.3644 30.3794Z" fill="#F99893"/>
<path d="M91.4633 25.8363C91.2578 26.2633 91.3668 26.7437 91.7072 26.9084C92.0476 27.0732 92.4907 26.8615 92.6969 26.4344C92.903 26.0074 92.7933 25.5271 92.4529 25.3623C92.1126 25.1975 91.6694 25.4093 91.4633 25.8363Z" fill="#F99893"/>
<path d="M91.9602 26.1491C91.9784 26.0376 92.0021 25.9275 92.0301 25.8181C92.1493 25.3235 92.1647 24.8094 92.0752 24.3085C91.9858 23.8076 91.7935 23.3309 91.5106 22.9085C91.2277 22.4862 90.8603 22.1274 90.4319 21.8552C90.0034 21.5829 89.5231 21.4029 89.0216 21.3268C88.5201 21.2507 88.0083 21.28 87.5187 21.413C87.0291 21.5459 86.5724 21.7795 86.1776 22.099C85.7828 22.4185 85.4586 22.8169 85.2255 23.2688C84.9924 23.7207 84.8555 24.2164 84.8235 24.7242C84.7219 24.6528 84.605 24.6064 84.4822 24.5888C84.3594 24.5713 84.2343 24.5831 84.1169 24.6233C83.671 24.7894 83.4781 25.3777 83.6856 25.9366C83.8932 26.4955 84.423 26.8131 84.8682 26.6462C84.929 26.6234 84.9862 26.592 85.0381 26.5529C85.1079 28.3578 86.4841 29.8353 88.2426 29.9187C89.0748 29.9558 89.89 29.6744 90.5232 29.1313C91.3661 28.5079 91.7932 27.1868 91.9602 26.1491Z" fill="#FFC0BB"/>
<path d="M89.2938 24.9724C89.3008 25.1828 89.3022 25.3875 89.3127 25.5888C89.3232 25.79 89.3476 25.9955 89.4259 26.1343C89.5063 26.2458 89.5657 26.318 89.5713 26.4554C89.5716 26.5205 89.5574 26.5849 89.5297 26.6437C89.502 26.7026 89.4615 26.7544 89.4112 26.7955C89.3235 26.8645 89.2208 26.9115 89.1114 26.9329C89.0021 26.9542 88.8892 26.9492 88.7822 26.9182C88.9863 26.8825 89.1827 26.8117 89.2966 26.6777C89.3231 26.6499 89.3435 26.6168 89.3565 26.5805C89.3695 26.5443 89.3748 26.5058 89.3721 26.4674C89.3637 26.3902 89.3399 26.3748 89.247 26.2458C89.19 26.1424 89.1564 26.0278 89.1484 25.9099C89.1379 25.8024 89.1379 25.6942 89.1484 25.5867C89.167 25.3759 89.216 25.169 89.2938 24.9724Z" fill="#F99893"/>
<path d="M88.0784 25.1989C88.0853 25.2661 88.0709 25.3339 88.0372 25.3924C88.0035 25.451 87.9522 25.4973 87.8906 25.5248C87.829 25.5523 87.7604 25.5596 87.6945 25.5456C87.6285 25.5315 87.5687 25.497 87.5236 25.4468C87.4784 25.3966 87.4502 25.3333 87.4431 25.2661C87.4359 25.1989 87.4501 25.1311 87.4837 25.0725C87.5173 25.0138 87.5685 24.9674 87.63 24.9397C87.6914 24.912 87.7601 24.9046 87.8261 24.9184C87.8923 24.9323 87.9524 24.967 87.9978 25.0174C88.0431 25.0678 88.0714 25.1313 88.0784 25.1989V25.1989Z" fill="#333333"/>
<path d="M90.8091 25.5089C90.816 25.5761 90.8016 25.6439 90.7678 25.7024C90.734 25.761 90.6826 25.8073 90.621 25.8347C90.5594 25.8622 90.4907 25.8694 90.4248 25.8553C90.3588 25.8412 90.299 25.8065 90.2539 25.7563C90.2088 25.706 90.1808 25.6427 90.1737 25.5754C90.1667 25.5081 90.181 25.4404 90.2147 25.3818C90.2484 25.3232 90.2997 25.2768 90.3612 25.2492C90.4228 25.2217 90.4915 25.2144 90.5575 25.2284C90.6236 25.2424 90.6836 25.2771 90.7288 25.3275C90.774 25.3779 90.8021 25.4414 90.8091 25.5089V25.5089Z" fill="#333333"/>
<path d="M87.5444 27.4169C87.6273 27.4905 87.7156 27.5578 87.8086 27.6181C87.8993 27.6801 87.9944 27.7354 88.0931 27.7836C88.2876 27.881 88.4968 27.9455 88.7123 27.9743C88.9277 28.0003 89.1461 27.9841 89.3553 27.9266C89.5666 27.8641 89.7683 27.7723 89.9543 27.6539C89.7838 27.8012 89.5869 27.9147 89.3742 27.9883C89.1582 28.0621 88.9283 28.0861 88.7018 28.0585C88.4768 28.0285 88.2598 27.9547 88.063 27.8411C87.8666 27.7314 87.691 27.5878 87.5444 27.4169Z" fill="#F99893"/>
<path d="M88.4837 24.5272C88.331 24.4783 88.175 24.4406 88.0168 24.4143C87.87 24.3908 87.7207 24.3875 87.573 24.4045C87.4262 24.4214 87.2825 24.4596 87.1467 24.5181C87.0405 24.5518 86.7826 24.7039 86.7155 24.7334C86.7956 24.5758 86.9132 24.4405 87.0579 24.3395C87.2026 24.2385 87.37 24.1748 87.5451 24.1542C87.7231 24.1334 87.9035 24.1575 88.07 24.2243C88.2323 24.2866 88.3751 24.3912 88.4837 24.5272V24.5272Z" fill="#07085B"/>
<path d="M89.8879 24.6857C90.0207 24.5737 90.1809 24.4991 90.352 24.4697C90.5281 24.4361 90.7098 24.4474 90.8804 24.5027C91.0476 24.5575 91.1988 24.6528 91.3207 24.7801C91.4426 24.9074 91.5314 25.0628 91.5793 25.2326C91.5185 25.1898 91.2955 24.9907 91.1977 24.9374C91.0758 24.8534 90.9423 24.7879 90.8014 24.7432C90.66 24.6976 90.513 24.6718 90.3645 24.6667C90.2054 24.6616 90.0461 24.6679 89.8879 24.6857V24.6857Z" fill="#07085B"/>
<path d="M88.36 46.7159C88.36 46.7159 87.645 51.5745 92.3278 52.4209C97.0106 53.2672 102.828 53.0148 102.828 53.0148L103.639 64.175L106.085 64.3005C106.085 64.3005 112.375 48.7936 103.669 46.3695L95.8448 46.4081L92.6228 46.1774C92.6228 46.1774 89.3574 45.3675 89.3225 45.5232C89.2875 45.6788 88.4369 46.793 88.36 46.7159Z" fill="#070852"/>
<path d="M84.0603 46.7411C84.0603 46.7411 83.346 51.5997 88.0252 52.4467C92.7045 53.2938 98.5266 53.0406 98.5266 53.0406L99.3366 64.2009L101.783 64.3257C101.783 64.3257 108.073 48.8194 99.3667 46.3954L91.5387 46.4333L88.3174 46.2026C88.3174 46.2026 85.0569 45.3948 85.0192 45.5483C84.9814 45.7019 84.1364 46.8182 84.0603 46.7411Z" fill="#10116B"/>
<path d="M89.9515 30.7987C89.9515 30.7987 93.1735 31.2089 93.9913 31.8765C94.809 32.544 98.7474 42.3418 98.7474 42.3418L95.4744 46.19L88.5201 46.2412C88.5201 46.2412 83.304 49.0628 80.031 46.3955C76.7579 43.7281 78.4458 34.4414 80.3378 32.4416C82.2298 30.4418 85.6049 30.4923 85.6049 30.4923C85.6049 30.4923 88.6752 32.6457 89.9515 30.7987Z" fill="#FF5B7E"/>
<path d="M83.715 35.6727C83.8263 36.2073 83.9049 36.7483 83.9505 37.2925C83.9785 37.5646 83.9904 37.8373 84.0064 38.1101C84.0225 38.3829 84.0204 38.657 84.0169 38.9312C84.0138 39.4796 83.9689 40.0269 83.8827 40.5685C83.7912 41.1077 83.6584 41.649 83.4082 42.1371C83.5651 41.6186 83.6696 41.0856 83.7199 40.5461C83.7793 40.0096 83.7996 39.469 83.8065 38.9277C83.8135 38.3864 83.8065 37.845 83.7877 37.303C83.7688 36.761 83.7436 36.2176 83.715 35.6727Z" fill="white"/>
<path d="M93.3546 35.3137C93.5013 36.1082 93.6572 36.8998 93.8158 37.6908C93.9745 38.4817 94.145 39.2685 94.3358 40.0503C94.5267 40.8321 94.7335 41.6105 94.9865 42.372C95.1113 42.7535 95.2565 43.128 95.4213 43.4939C95.5782 43.8652 95.7862 44.2126 96.0391 44.5261C95.7428 44.2456 95.5254 43.895 95.329 43.5444C95.139 43.1854 94.973 42.8141 94.8321 42.433C94.6874 42.0536 94.563 41.6673 94.4456 41.2795C94.3282 40.8917 94.2282 40.4984 94.1311 40.105C94.0339 39.7116 93.95 39.3162 93.8711 38.9193C93.7921 38.5224 93.7187 38.1248 93.6551 37.7272C93.5237 36.9223 93.421 36.1194 93.3546 35.3137Z" fill="white"/>
<path d="M100.33 37.0864C99.735 36.1573 94.86 34.5796 94.86 34.5796V36.1524L99.8224 37.8928L100.33 37.0864Z" fill="#EDEDED"/>
<path d="M99.9796 37.0233L94.3184 34.4043V35.421L99.8399 37.4194L99.9796 37.0233Z" fill="white"/>
<path d="M99.6651 37.0233L93.6893 34.7549V36.5079L99.605 37.4194L99.6651 37.0233Z" fill="#EDEDED"/>
<path d="M100.331 36.8437C100.331 36.8437 101.482 34.1413 101.954 33.5803C101.954 35.3586 101.238 37.5947 101.238 37.5947L100.331 36.8437Z" fill="white"/>
<path d="M100.833 36.9637L102.23 33.4226V35.1097L101.271 37.4194L100.833 36.9637Z" fill="#EDEDED"/>
<path d="M101.271 37.0232L102.793 33.5803V34.8074L101.271 37.0232Z" fill="white"/>
<path d="M101.271 47.6316L103.19 44.315V33.7065L101.271 37.0232V47.6316Z" fill="#26426E"/>
<path d="M92.4278 46.0287L99.2234 47.6316V37.0232L92.4278 35.4203V46.0287Z" fill="#55769F"/>
<path d="M99.2234 37.0232C99.8224 36.7358 101.076 36.8374 101.271 37.0232C101.168 37.6298 99.3758 37.749 99.2234 37.0232Z" fill="#E0E0E0"/>
<path d="M99.2234 47.6316C99.2234 47.8911 101.28 47.8911 101.28 47.6316V37.0232C101.07 37.3317 99.4555 37.3226 99.2234 37.0232V47.6316Z" fill="#3A5782"/>
<path d="M94.9732 43.9721C94.953 43.8101 93.7236 43.6285 93.2721 43.6046C92.9296 43.5871 90.6609 43.5114 89.8886 43.4763L89.9459 43.6755L89.934 44.5548L89.8075 45.1375C90.4841 45.1802 92.1398 45.2454 92.4844 45.3135C92.945 45.4053 93.7424 45.7531 93.7424 45.7531C93.7424 45.7531 94.0744 45.6774 93.6523 45.4951C93.3951 45.3801 93.1646 45.213 92.975 45.0042C92.917 44.9397 92.9799 44.8233 93.0219 44.8345C94.1716 45.1368 94.2897 45.1851 94.2897 45.1851C94.2897 45.1851 95.64 45.1781 94.2974 44.8731C93.4922 44.6908 93.2036 44.5849 93.1323 44.4938C93.1015 44.4552 93.156 44.3241 93.2022 44.3213C93.9011 44.2778 95.1515 44.526 94.8097 44.3633C94.5301 44.2308 93.6495 44.0829 93.307 44.0303C93.286 44.0303 93.2525 43.8991 93.3455 43.89C94.0122 43.8402 94.9921 44.1228 94.9732 43.9721Z" fill="#FFC0BB"/>
<path d="M82.9287 42.0017C83.2083 42.0718 83.4878 42.1497 83.7744 42.2121C84.061 42.2745 84.3426 42.3292 84.6257 42.3888C85.196 42.4932 85.7677 42.5837 86.3415 42.6643C86.9154 42.745 87.4906 42.8095 88.0672 42.8656C88.6438 42.9217 89.2253 42.9715 89.7942 43.0058L89.8704 43.01L89.8872 43.0766C89.9805 43.4549 90.0274 43.8432 90.027 44.2329C90.0249 44.4279 90.0081 44.6225 89.9766 44.8149C89.9409 45.0075 89.8844 45.1955 89.8082 45.3759L89.8012 45.3913L89.7893 45.3997L89.1603 45.8246C88.9497 45.9649 88.7381 46.1051 88.5257 46.2454C88.7237 46.0864 88.9231 45.9296 89.124 45.7749L89.7264 45.3086L89.7069 45.3324C89.7707 45.1578 89.8152 44.9768 89.8397 44.7925C89.8626 44.6064 89.8715 44.4189 89.8662 44.2315C89.8597 44.0437 89.8429 43.8565 89.8159 43.6706C89.7896 43.4862 89.7523 43.3035 89.7041 43.1236L89.7977 43.1937C89.4972 43.186 89.2127 43.1664 88.9199 43.1454C88.627 43.1243 88.3398 43.1005 88.0497 43.0703C87.4703 43.01 86.8923 42.9378 86.3178 42.8453C85.7433 42.7527 85.1701 42.6398 84.6033 42.5052C84.3237 42.435 84.0386 42.3649 83.7604 42.2752C83.4822 42.1854 83.202 42.0999 82.9287 42.0017Z" fill="white"/>
<path d="M92.5571 21.4833C92.5571 21.4833 93.6313 21.5177 92.5047 20.6068C91.378 19.696 88.3509 18.6274 86.4114 19.6546C86.4114 19.6546 86.0235 18.8272 85.463 19.0235C84.9025 19.2199 85.8278 19.7899 85.8278 19.7899C85.8278 19.7899 85.1114 19.7668 84.8927 20.1195C84.7312 20.3797 85.1722 20.3916 85.4099 20.3797C85.0017 20.4498 83.4396 21.4392 84.2217 24.6002C84.5013 24.5392 86.0885 22.228 86.0885 22.228C86.0885 22.228 89.7229 24.2531 89.3623 22.6424C89.3623 22.6424 93.126 24.9991 92.592 23.0526C92.5941 23.054 94.0493 23.1613 92.5571 21.4833Z" fill="#07085B"/>
<path d="M84.2203 24.6205C84.2203 24.6205 84.5215 24.5146 84.8451 24.7726C85.1687 25.0307 85.1324 25.9352 85.1324 25.9352C85.1324 25.9352 86.677 26.9337 86.5142 22.7097C86.3408 18.2122 85.2261 23.0701 85.2261 23.0701L84.2203 24.6205Z" fill="#07085B"/>
<path d="M67.4594 108.934L68.1031 110.375C68.1158 110.404 68.1229 110.434 68.1238 110.465C68.1248 110.496 68.1196 110.527 68.1086 110.556C68.0977 110.585 68.0811 110.612 68.0599 110.634C68.0387 110.657 68.0132 110.675 67.985 110.688L64.6197 112.201C64.567 112.224 64.5082 112.23 64.452 112.217C64.3958 112.204 64.3453 112.174 64.3079 112.13C64.2705 112.086 64.2484 112.031 64.2448 111.973C64.2411 111.915 64.2562 111.858 64.2877 111.809L65.5898 109.776C65.5898 109.776 66.6193 109.963 67.4594 108.934Z" fill="#07085B"/>
<path d="M71.8193 108.762L72.4637 110.204C72.4892 110.261 72.491 110.326 72.4687 110.385C72.4465 110.443 72.4019 110.491 72.3449 110.516L68.9838 112.03C68.9311 112.053 68.8723 112.059 68.8161 112.046C68.7599 112.033 68.7093 112.003 68.672 111.959C68.6346 111.915 68.6125 111.86 68.6088 111.802C68.6052 111.744 68.6203 111.687 68.6518 111.638L69.9539 109.605C69.9539 109.605 70.9799 109.792 71.8193 108.762Z" fill="#07085B"/>
<path d="M75.7522 62.077C75.7522 62.077 72.0856 61.4571 70.8548 65.5675L72.3736 67.8478C72.3736 67.8478 75.5586 66.62 75.5711 66.5001C75.5837 66.3802 75.7522 62.077 75.7522 62.077Z" fill="#FF5500"/>
<path d="M81.6546 63.9288C81.6546 63.9288 82.7239 65.5416 83.2698 66.1825C84.6418 67.7952 84.8186 67.2876 85.672 68.6717C86.5925 70.166 85.6608 71.1021 85.1317 71.5326C84.6026 71.9632 85.4882 73.5563 84.5027 74.4496C83.2111 75.6185 82.0166 74.5197 81.1283 75.1711C80.2399 75.8225 80.0456 76.7965 77.9398 76.6135C75.8339 76.4305 75.8542 69.5216 75.8542 69.5216C75.8542 69.5216 77.5777 65.8592 77.6462 65.8291C77.7147 65.7989 81.6546 63.9288 81.6546 63.9288Z" fill="#FF5500"/>
<path d="M70.8548 65.5676C70.8548 65.5676 70.729 66.8347 70.311 67.5653C69.2626 69.4025 68.6937 68.8001 68.1115 70.3196C67.4825 71.9597 68.5707 72.7037 69.1711 73.0305C69.7715 73.3572 69.1948 75.0857 70.3292 75.7792C71.8144 76.6907 72.7845 75.3823 73.7791 75.8605C74.7737 76.3387 75.1434 77.2566 77.1787 76.6844C79.2139 76.1122 77.9174 69.3281 77.9174 69.3281C77.9174 69.3281 75.5467 66.0501 75.4712 66.0325C75.3957 66.015 70.8548 65.5676 70.8548 65.5676Z" fill="#FF5500"/>
<path d="M76.1757 73.7477C76.1757 73.7477 79.6899 73.0991 81.3065 73.1538C82.9231 73.2085 80.328 77.4248 80.328 77.4248L77.6889 77.4837C77.6889 77.4837 76.0702 75.6704 76.1771 75.4593C76.284 75.2483 76.1715 73.8655 76.1715 73.8655L76.1757 73.7477Z" fill="#FFC0BB"/>
<path d="M79.3097 70.3834L80.2365 73.205C80.2365 73.205 79.4292 74.8788 76.9578 74.1573C76.9578 74.1573 77.2374 73.5725 76.8613 72.3685C76.4748 71.1393 79.3097 70.3834 79.3097 70.3834Z" fill="#FFC0BB"/>
<path opacity="0.6" d="M79.3097 70.3834L79.7444 71.7024C79.4851 72.6658 78.6443 73.3221 77.0577 73.5255C77.0521 73.1322 76.9859 72.7422 76.8613 72.3692C76.4748 71.1393 79.3097 70.3834 79.3097 70.3834Z" fill="#FC8D84"/>
<path d="M73.6547 68.3163C73.8553 68.7748 73.7246 69.2769 73.3555 69.4382C72.9865 69.5994 72.5315 69.3575 72.3302 68.8996C72.1289 68.4418 72.2603 67.939 72.6294 67.7777C72.9984 67.6165 73.4569 67.8577 73.6547 68.3163Z" fill="#F99893"/>
<path d="M73.5519 70.4003C73.3328 69.8308 73.1871 69.2356 73.1186 68.629C73.1039 68.5112 73.0823 68.3941 73.0585 68.2784C72.9516 67.7521 72.9551 67.2091 73.0686 66.6841C73.1821 66.1592 73.4033 65.6636 73.7179 65.229C74.0326 64.7944 74.434 64.4302 74.8965 64.1595C75.359 63.8888 75.8726 63.7177 76.4046 63.6569C76.9366 63.596 77.4754 63.6469 77.9867 63.8062C78.4981 63.9656 78.9708 64.2298 79.3749 64.5823C79.779 64.9348 80.1056 65.3677 80.3339 65.8536C80.5622 66.3395 80.6873 66.8677 80.7012 67.4047C80.8112 67.3335 80.9363 67.2892 81.0665 67.2756C81.1967 67.2619 81.3282 67.2793 81.4505 67.3262C81.9139 67.519 82.0949 68.1466 81.8545 68.7286C81.614 69.3106 81.043 69.624 80.5803 69.4298C80.5168 69.4035 80.4575 69.3681 80.4042 69.3246C80.2644 71.2256 78.7526 72.7303 76.8949 72.7486C75.5012 72.7605 74.1286 71.912 73.5519 70.4003Z" fill="#FFC0BB"/>
<path d="M75.973 67.4895C76.0447 67.7002 76.0863 67.92 76.0967 68.1423C76.1035 68.2558 76.0996 68.3697 76.0848 68.4824C76.0717 68.6064 76.0319 68.726 75.9681 68.833C75.8836 68.9417 75.8395 68.9781 75.8283 69.0651C75.8241 69.1063 75.8285 69.1479 75.8413 69.1873C75.854 69.2266 75.8749 69.2629 75.9024 69.2937C76.0191 69.4402 76.2246 69.5209 76.4392 69.5643C76.3253 69.5915 76.2066 69.5914 76.0928 69.5641C75.9789 69.5368 75.873 69.4831 75.7836 69.4073C75.7326 69.3626 75.6923 69.3069 75.6658 69.2443C75.6393 69.1818 75.6272 69.114 75.6305 69.0462C75.641 68.8961 75.7081 68.8295 75.7948 68.7159C75.8419 68.6341 75.8743 68.5446 75.8905 68.4515C75.9115 68.3492 75.9262 68.2457 75.9346 68.1416C75.9548 67.927 75.9632 67.7104 75.973 67.4895Z" fill="#F99893"/>
<path d="M77.2485 67.7764C77.2373 67.8469 77.2486 67.9192 77.2809 67.9828C77.3132 68.0465 77.3647 68.0983 77.4281 68.1307C77.4915 68.1632 77.5635 68.1747 77.6338 68.1635C77.7041 68.1524 77.7691 68.1192 77.8194 68.0687C77.8697 68.0182 77.9028 67.953 77.914 67.8824C77.9251 67.8119 77.9136 67.7397 77.8813 67.6761C77.8489 67.6125 77.7973 67.5608 77.7339 67.5284C77.6704 67.496 77.5984 67.4847 77.5281 67.4959C77.458 67.5073 77.3933 67.5405 77.3431 67.5908C77.2929 67.6412 77.2598 67.7061 77.2485 67.7764Z" fill="#333333"/>
<path d="M74.3571 67.9965C74.3468 68.0672 74.359 68.1393 74.392 68.2026C74.4251 68.2658 74.4773 68.3169 74.541 68.3486C74.6048 68.3802 74.677 68.3908 74.7472 68.3788C74.8173 68.3667 74.8819 68.3327 74.9316 68.2816C74.9813 68.2305 75.0135 68.1649 75.0238 68.0942C75.034 68.0236 75.0217 67.9515 74.9885 67.8883C74.9554 67.8251 74.9032 67.774 74.8393 67.7425C74.7755 67.7109 74.7033 67.7004 74.6332 67.7126C74.5631 67.7246 74.4987 67.7585 74.4491 67.8095C74.3995 67.8605 74.3673 67.926 74.3571 67.9965Z" fill="#333333"/>
<g style="mix-blend-mode:multiply" opacity="0.3">
<path d="M77.3045 70.4002C77.1487 70.3523 76.9845 70.3387 76.823 70.3603C76.6615 70.3818 76.5065 70.438 76.3686 70.525C76.3686 70.525 75.8794 70.2172 75.4922 70.5117C75.4922 70.5117 75.6718 71.2437 76.4769 71.1946C77.2821 71.1456 77.3045 70.4002 77.3045 70.4002Z" fill="#F99893"/>
</g>
<path d="M77.7259 70.1379C77.5447 70.2841 77.3458 70.4066 77.1339 70.5026C76.9249 70.5981 76.7014 70.658 76.4727 70.68C76.2445 70.6993 76.0147 70.6738 75.7962 70.6049C75.576 70.5306 75.3671 70.4261 75.1755 70.2943C75.2627 70.3736 75.3562 70.4456 75.4551 70.5096C75.556 70.5726 75.6624 70.6261 75.7731 70.6694C75.886 70.7121 76.0032 70.7422 76.1226 70.7592C76.2417 70.7745 76.3621 70.7776 76.4818 70.7683C76.7206 70.7459 76.9526 70.6766 77.1647 70.5643C77.3753 70.4563 77.5652 70.312 77.7259 70.1379V70.1379Z" fill="#F99893"/>
<path d="M76.8502 67.0513C77.0131 67.0056 77.1792 66.9721 77.3471 66.951C77.5028 66.9316 77.6604 66.9339 77.8154 66.958C77.9697 66.9811 78.1197 67.0269 78.2606 67.0941C78.371 67.1333 78.638 67.3044 78.7072 67.3374C78.6285 67.1683 78.5095 67.0213 78.3608 66.9091C78.2121 66.797 78.0383 66.7233 77.8545 66.6944C77.6666 66.6652 77.4744 66.6835 77.2954 66.7477C77.123 66.808 76.9695 66.9127 76.8502 67.0513V67.0513Z" fill="#FF5500"/>
<path d="M75.3608 67.1642C75.2249 67.0407 75.0587 66.9558 74.8792 66.9181C74.6945 66.8759 74.5023 66.8809 74.3201 66.9328C74.1371 66.9825 73.9701 67.0792 73.8357 67.2133C73.7038 67.3403 73.6061 67.4988 73.5519 67.674C73.6169 67.6312 73.8609 67.4292 73.9657 67.3774C74.0972 67.2935 74.2404 67.2297 74.3906 67.188C74.5417 67.1454 74.6978 67.1237 74.8547 67.1235C75.0242 67.1248 75.1933 67.1383 75.3608 67.1642Z" fill="#FF5500"/>
<path d="M82.2892 90.9966C82.2892 90.9966 83.3257 95.8902 78.6226 97.0521C73.9196 98.214 67.9836 98.3318 67.9836 98.3318L67.8739 109.731L65.3983 110.018C65.3983 110.018 58.0107 94.6547 66.7081 91.6297L74.6653 91.1648L77.9258 90.7224C77.9258 90.7224 81.1891 89.6916 81.238 89.8452C81.2869 89.9988 82.2158 91.0793 82.2892 90.9966Z" fill="#FFC0BB"/>
<path d="M86.6624 90.7455C86.6624 90.7455 87.6989 95.6391 82.9958 96.801C78.2927 97.9629 72.3575 98.0814 72.3575 98.0814L72.2477 109.48L69.7722 109.765C69.7722 109.765 62.3852 94.4036 71.0805 91.3786L79.0378 90.9137L82.2983 90.472C82.2983 90.472 85.5609 89.4405 85.6098 89.5941C85.6587 89.7476 86.5897 90.8289 86.6624 90.7455Z" fill="#FFC0BB"/>
<path d="M69.7526 90.1684C65.7869 90.2294 62.17 92.5139 60.8832 96.9504C59.5965 101.387 56.6611 105.964 56.9406 105.92C63.161 109.413 65.118 105.904 69.4157 106.942C73.7134 107.979 75.2384 107.51 75.2384 107.51C73.9944 101.247 72.3575 98.0814 72.3575 98.0814C72.7188 98.1459 83.2698 98.3023 85.8761 95.4042C86.6071 94.5908 87.167 93.5692 87.0552 91.0708C86.8469 86.4205 70.903 90.1508 69.7526 90.1684Z" fill="#FEB546"/>
<path d="M70.9352 98.4082C71.0708 98.3836 71.2064 98.3605 71.3399 98.3289C71.4733 98.2974 71.6061 98.2588 71.7368 98.2217C71.8025 98.2013 71.8682 98.1789 71.9332 98.1515C71.8655 98.1372 71.799 98.118 71.734 98.094C71.6057 98.047 71.4837 97.9844 71.3706 97.9075C71.2607 97.8285 71.1589 97.7388 71.0666 97.6397C70.977 97.5398 70.8972 97.4316 70.8282 97.3164L70.9631 97.463C71.0114 97.5085 71.0561 97.5562 71.1029 97.5983C71.1995 97.6859 71.3044 97.7639 71.416 97.8311C71.5267 97.8977 71.6438 97.9529 71.7655 97.9959C71.8846 98.038 72.0091 98.063 72.1352 98.0702L72.3554 98.0786L72.1604 98.1691C72.0312 98.2268 71.8975 98.2737 71.7606 98.3093C71.626 98.3458 71.4895 98.375 71.3517 98.397C71.2119 98.4194 71.0764 98.439 70.938 98.4488C70.7996 98.4587 70.6584 98.4664 70.5186 98.4657C70.6612 98.4481 70.801 98.4327 70.9352 98.4082Z" fill="#DAEEF7"/>
<path d="M72.1813 80.618C72.1813 80.618 71.8612 88.6117 70.9645 89.8661L75.894 88.7442V80.0396L72.1813 80.618Z" fill="#FFC0BB"/>
<path d="M74.1726 81.7098C74.1726 81.7098 74.9673 83.7223 75.0917 84.7909C75.402 87.4456 75.0651 89.3185 74.5178 90.8296C73.749 92.9486 79.6948 92.1423 79.8374 92.1458C86.12 92.2958 86.0578 92.0385 86.0578 92.0385L87.0607 91.2307C86.9209 88.6412 86.5638 86.4023 86.6197 84.0925L86.677 81.7084L86.3891 79.2998L77.496 78.5986L74.1726 81.7098Z" fill="#FEB546"/>
<path d="M71.1288 83.4874C71.6718 82.6397 76.1191 81.2008 76.1191 81.2008V82.6355L71.5922 84.223L71.1288 83.4874Z" fill="#EDEDED"/>
<path d="M71.1288 83.4874C71.6718 82.6397 76.1191 81.2008 76.1191 81.2008V82.6355L71.5922 84.223L71.1288 83.4874Z" fill="#EDEDED"/>
<path d="M71.4482 83.4298L76.6139 81.0402V81.9678L71.5761 83.7917L71.4482 83.4298Z" fill="white"/>
<path d="M71.7354 83.4298L77.1877 81.3606V82.96L71.7907 83.7916L71.7354 83.4298Z" fill="#EDEDED"/>
<path d="M71.1288 83.2666C71.1288 83.2666 70.0804 80.8004 69.647 80.2886C69.647 81.9111 70.3005 83.9516 70.3005 83.9516L71.1288 83.2666Z" fill="white"/>
<path d="M70.6696 83.3759L69.3954 80.1448V81.6839L70.2705 83.7917L70.6696 83.3759Z" fill="#EDEDED"/>
<path d="M70.2705 83.4299L68.8817 80.2886V81.4084L70.2705 83.4299Z" fill="white"/>
<path d="M70.2705 93.1085L68.9964 90.1663V80.4869L70.2705 83.4299V93.1085Z" fill="#F5577A"/>
<path d="M78.3389 91.6465L72.138 93.1085V83.4299L78.3389 81.9679V91.6465Z" fill="#FF5B7E"/>
<path d="M72.138 83.4299C71.5921 83.1677 70.448 83.2602 70.2705 83.4299C70.3641 83.9832 71.9989 84.0918 72.138 83.4299Z" fill="#E0E0E0"/>
<path d="M72.138 93.1085C72.138 93.3455 70.2621 93.3455 70.2621 93.1085V83.432C70.4522 83.7125 71.9269 83.7055 72.138 83.432V93.1085Z" fill="#DE4B6C"/>
<path d="M88.5424 79.656L84.3223 81.6194C84.3223 81.6194 83.9938 87.0361 83.7898 87.2759C83.4207 87.7093 79.6787 88.9525 77.7091 89.3157C77.3922 89.3748 77.0653 89.3492 76.7614 89.2414C75.7829 88.895 74.0538 88.2716 73.7805 88.1784C73.352 88.0332 72.1429 87.7464 72.0639 87.8902C71.994 88.0227 73.0054 88.1237 73.6015 88.421C73.6854 88.463 73.6064 88.5696 73.5862 88.5612C73.2472 88.4848 72.3756 88.2941 72.0667 88.3137C71.6886 88.3382 72.9432 88.571 73.575 88.8697C73.6197 88.8908 73.6218 89.0331 73.5792 89.0577C73.4792 89.1152 73.1724 89.1067 72.3568 88.9784C70.9967 88.7639 72.2491 89.2715 72.2491 89.2715C72.2491 89.2715 72.3777 89.2715 73.5568 89.4118C73.6002 89.4174 73.6155 89.552 73.538 89.5871C73.2852 89.7097 73.0098 89.7784 72.7293 89.789C72.2701 89.8023 72.5504 89.9994 72.5504 89.9994C72.5504 89.9994 73.4212 89.9713 73.8825 90.0569C74.2278 90.1207 75.7906 90.6732 76.4357 90.8843L76.5154 90.7847C77.41 90.9951 85.6545 91.5981 86.656 89.1439C88.4963 84.6282 88.5424 79.656 88.5424 79.656Z" fill="#FFC0BB"/>
<path d="M76.1757 73.7478C76.1757 73.7478 78.5646 76.5463 81.3065 73.1539C81.3065 73.1539 84.3021 72.9091 86.51 74.4861C88.7179 76.0631 90.0409 79.5937 90.0409 79.5937C90.0409 79.5937 86.8713 81.7134 84.3161 81.7134L78.3242 79.5607L74.1726 81.7134C74.1726 81.7134 72.2449 81.5851 70.613 80.7499C70.613 80.7464 70.8939 75.1291 76.1757 73.7478Z" fill="#FEB546"/>
<path d="M83.5913 78.5215C83.694 78.8721 83.787 79.2178 83.8792 79.5684C84.0512 80.2556 84.2098 80.9105 84.3259 81.6138C84.5518 81.6166 84.7775 81.599 85.0003 81.5612C86.1535 81.3551 86.9112 81.0311 87.9358 80.6097C89.4734 79.9085 89.2637 79.9744 90.0417 79.5902C89.3839 80.016 88.702 80.403 87.9994 80.7492C87.0999 81.17 86.2402 81.5542 85.0297 81.7681C84.5006 81.8382 84.3482 81.8249 84.1476 81.8024C84.0693 81.2864 83.9799 80.7584 83.7346 79.6021L83.5053 78.5426L83.2705 77.4838C83.3816 77.8274 83.485 78.1744 83.5913 78.5215Z" fill="#07085B"/>
<path d="M74.0908 79.1723C74.0107 79.595 73.9767 80.0253 73.9895 80.4555C73.9972 80.6658 74.1495 81.2443 74.3263 81.834L74.2278 81.8712C74.0237 81.278 73.8483 80.6847 73.8252 80.4688C73.7806 80.0242 73.8001 79.5755 73.8832 79.1365C73.9629 78.7001 74.0839 78.2723 74.2446 77.8589C74.3986 77.4451 74.5931 77.0477 74.8254 76.6725C74.6688 77.0834 74.5262 77.4957 74.399 77.9122C74.2713 78.3257 74.1684 78.7464 74.0908 79.1723V79.1723Z" fill="#07085B"/>
<path d="M80.7012 67.4012C80.7012 67.4012 76.5971 66.4083 74.6367 63.6105C74.6367 63.6105 74.6031 61.063 78.3703 61.6408C82.0306 62.2025 82.8875 65.7765 80.7012 67.4012Z" fill="#FF5500"/>
</g>
<defs>
<clipPath id="clip0_38_252">
<rect width="153" height="114" fill="white"/>
</clipPath>
</defs>
</svg>
